<?xml version="1.0" encoding="UTF-8" standalone="no"?><svg xmlns="http://www.w3.org/2000/svg" xmlns:xlink="http://www.w3.org/1999/xlink" contentStyleType="text/css" height="689px" preserveAspectRatio="none" style="width:1225px;height:689px;background:#FFFFFF;" version="1.1" viewBox="0 0 1225 689" width="1225px" zoomAndPan="magnify"><defs/><g><!--MD5=[8ee276b4a794ad8552e0b2f7b8c40bb1]
cluster Droit d'accès aux articles--><g id="cluster_Droit d'accès aux articles"><path d="M194.5,36.71 L402.5,36.71 A3.75,3.75 0 0 1 405,39.21 L412,59.0069 L736.5,59.0069 A2.5,2.5 0 0 1 739,61.5069 L739,269.71 A2.5,2.5 0 0 1 736.5,272.21 L194.5,272.21 A2.5,2.5 0 0 1 192,269.71 L192,39.21 A2.5,2.5 0 0 1 194.5,36.71 " fill="#DDDDDD" style="stroke:#000000;stroke-width:1.5;"/><line style="stroke:#000000;stroke-width:1.5;" x1="192" x2="412" y1="59.0069" y2="59.0069"/><text fill="#000000" font-family="sans-serif" font-size="14" font-weight="bold" lengthAdjust="spacing" textLength="207" x="196" y="51.7051">Droit d'accès aux articles</text></g><!--MD5=[a27bcd690a7a34d86e3db15e7cb852b2]
class DroitArticle--><g id="elem_DroitArticle"><rect codeLine="35" fill="#F1F1F1" height="48" id="DroitArticle" rx="2.5" ry="2.5" style="stroke:#181818;stroke-width:0.5;" width="113" x="549.5" y="208.21"/><ellipse cx="564.5" cy="224.21" fill="#A9DCDF" rx="11" ry="11" style="stroke:#181818;stroke-width:1.0;"/><path d="M566.5781,226.0225 L566.9688,227.0069 L566.5781,227.0069 C566.125,227.0069 566.0156,227.0225 565.8594,227.1319 C565.6094,227.2881 565.4531,227.5694 565.4531,227.8663 C565.4531,228.1319 565.5938,228.3819 565.8125,228.5381 C565.9531,228.6631 566.1563,228.71 566.5781,228.71 L568.9375,228.71 C569.2969,228.71 569.5156,228.6788 569.6563,228.585 C569.9063,228.4444 570.0625,228.1475 570.0625,227.8663 C570.0625,227.585 569.9219,227.335 569.7031,227.1788 C569.5313,227.0381 569.375,227.0069 568.9063,227.0069 L565.5156,218.8038 L561.8438,218.8038 C561.3906,218.8038 561.2656,218.8194 561.1094,218.9131 C560.8594,219.085 560.7031,219.3663 560.7031,219.6475 C560.7031,219.9288 560.8438,220.1788 561.0625,220.3506 C561.2344,220.46 561.4063,220.4913 561.8438,220.4913 L562.9219,220.4913 L560.2813,227.0069 C559.8594,227.0069 559.7031,227.0225 559.5469,227.1319 C559.2969,227.2881 559.1406,227.5694 559.1406,227.8663 C559.1406,228.4288 559.5156,228.71 560.2656,228.71 L562.5313,228.71 C562.8906,228.71 563.1094,228.6788 563.2344,228.585 C563.5,228.4444 563.6406,228.1475 563.6406,227.8663 C563.6406,227.585 563.5156,227.335 563.2969,227.1631 C563.125,227.0381 562.9844,227.0069 562.5313,227.0069 L562.1406,227.0069 L562.5313,226.0225 L566.5781,226.0225 Z M565.875,224.3194 L563.2031,224.3194 L564.5469,221.0538 L565.875,224.3194 Z " fill="#000000"/><text fill="#000000" font-family="sans-serif" font-size="14" font-style="italic" lengthAdjust="spacing" textLength="81" x="578.5" y="229.0567">DroitArticle</text><line style="stroke:#181818;stroke-width:0.5;" x1="550.5" x2="661.5" y1="240.21" y2="240.21"/><line style="stroke:#181818;stroke-width:0.5;" x1="550.5" x2="661.5" y1="248.21" y2="248.21"/></g><!--MD5=[ba7cdd7268f8425ce13073c51e42455b]
class OperateurDroit--><g id="elem_OperateurDroit"><rect codeLine="36" fill="#F1F1F1" height="48" id="OperateurDroit" rx="2.5" ry="2.5" style="stroke:#181818;stroke-width:0.5;" width="140" x="583" y="71.71"/><ellipse cx="598" cy="87.71" fill="#A9DCDF" rx="11" ry="11" style="stroke:#181818;stroke-width:1.0;"/><path d="M600.0781,89.5225 L600.4688,90.5069 L600.0781,90.5069 C599.625,90.5069 599.5156,90.5225 599.3594,90.6319 C599.1094,90.7881 598.9531,91.0694 598.9531,91.3663 C598.9531,91.6319 599.0938,91.8819 599.3125,92.0381 C599.4531,92.1631 599.6563,92.21 600.0781,92.21 L602.4375,92.21 C602.7969,92.21 603.0156,92.1788 603.1563,92.085 C603.4063,91.9444 603.5625,91.6475 603.5625,91.3663 C603.5625,91.085 603.4219,90.835 603.2031,90.6788 C603.0313,90.5381 602.875,90.5069 602.4063,90.5069 L599.0156,82.3038 L595.3438,82.3038 C594.8906,82.3038 594.7656,82.3194 594.6094,82.4131 C594.3594,82.585 594.2031,82.8663 594.2031,83.1475 C594.2031,83.4288 594.3438,83.6788 594.5625,83.8506 C594.7344,83.96 594.9063,83.9913 595.3438,83.9913 L596.4219,83.9913 L593.7813,90.5069 C593.3594,90.5069 593.2031,90.5225 593.0469,90.6319 C592.7969,90.7881 592.6406,91.0694 592.6406,91.3663 C592.6406,91.9288 593.0156,92.21 593.7656,92.21 L596.0313,92.21 C596.3906,92.21 596.6094,92.1788 596.7344,92.085 C597,91.9444 597.1406,91.6475 597.1406,91.3663 C597.1406,91.085 597.0156,90.835 596.7969,90.6631 C596.625,90.5381 596.4844,90.5069 596.0313,90.5069 L595.6406,90.5069 L596.0313,89.5225 L600.0781,89.5225 Z M599.375,87.8194 L596.7031,87.8194 L598.0469,84.5538 L599.375,87.8194 Z " fill="#000000"/><text fill="#000000" font-family="sans-serif" font-size="14" font-style="italic" lengthAdjust="spacing" textLength="108" x="612" y="92.5567">OperateurDroit</text><line style="stroke:#181818;stroke-width:0.5;" x1="584" x2="722" y1="103.71" y2="103.71"/><line style="stroke:#181818;stroke-width:0.5;" x1="584" x2="722" y1="111.71" y2="111.71"/></g><!--MD5=[808af22bcec075c66affd5e3db49a555]
class ET--><g id="elem_ET"><rect fill="#F1F1F1" height="48" id="ET" rx="2.5" ry="2.5" style="stroke:#181818;stroke-width:0.5;" width="50" x="498" y="71.71"/><ellipse cx="513" cy="87.71" fill="#ADD1B2" rx="11" ry="11" style="stroke:#181818;stroke-width:1.0;"/><path d="M515.3438,83.3819 C514.4063,82.9444 513.8125,82.8038 512.9375,82.8038 C510.3125,82.8038 508.3125,84.8819 508.3125,87.6006 L508.3125,88.7256 C508.3125,91.3038 510.4219,93.1944 513.3125,93.1944 C514.5313,93.1944 515.6875,92.8975 516.4375,92.3506 C517.0156,91.9444 517.3438,91.4913 517.3438,91.1006 C517.3438,90.6475 516.9531,90.2569 516.4844,90.2569 C516.2656,90.2569 516.0625,90.335 515.875,90.5225 C515.4219,91.0069 515.4219,91.0069 515.2344,91.1006 C514.8125,91.3663 514.125,91.4913 513.3594,91.4913 C511.3125,91.4913 510.0156,90.3975 510.0156,88.6944 L510.0156,87.6006 C510.0156,85.8194 511.2656,84.5069 513,84.5069 C513.5781,84.5069 514.1875,84.6631 514.6563,84.9131 C515.1406,85.1944 515.3125,85.4131 515.4063,85.8194 C515.4688,86.2256 515.5,86.3506 515.6406,86.4756 C515.7813,86.6163 516.0156,86.7256 516.2344,86.7256 C516.5,86.7256 516.7656,86.585 516.9375,86.3663 C517.0469,86.21 517.0781,86.0225 517.0781,85.6006 L517.0781,84.1788 C517.0781,83.7413 517.0625,83.6163 516.9688,83.46 C516.8125,83.1944 516.5313,83.0538 516.2344,83.0538 C515.9375,83.0538 515.7344,83.1475 515.5156,83.46 L515.3438,83.3819 Z " fill="#000000"/><text fill="#000000" font-family="sans-serif" font-size="14" lengthAdjust="spacing" textLength="18" x="527" y="92.5567">ET</text><line style="stroke:#181818;stroke-width:0.5;" x1="499" x2="547" y1="103.71" y2="103.71"/><line style="stroke:#181818;stroke-width:0.5;" x1="499" x2="547" y1="111.71" y2="111.71"/></g><!--MD5=[f0972d5ac481fc25081ab59c21378178]
class OU--><g id="elem_OU"><rect fill="#F1F1F1" height="48" id="OU" rx="2.5" ry="2.5" style="stroke:#181818;stroke-width:0.5;" width="52" x="411" y="71.71"/><ellipse cx="426" cy="87.71" fill="#ADD1B2" rx="11" ry="11" style="stroke:#181818;stroke-width:1.0;"/><path d="M428.3438,83.3819 C427.4063,82.9444 426.8125,82.8038 425.9375,82.8038 C423.3125,82.8038 421.3125,84.8819 421.3125,87.6006 L421.3125,88.7256 C421.3125,91.3038 423.4219,93.1944 426.3125,93.1944 C427.5313,93.1944 428.6875,92.8975 429.4375,92.3506 C430.0156,91.9444 430.3438,91.4913 430.3438,91.1006 C430.3438,90.6475 429.9531,90.2569 429.4844,90.2569 C429.2656,90.2569 429.0625,90.335 428.875,90.5225 C428.4219,91.0069 428.4219,91.0069 428.2344,91.1006 C427.8125,91.3663 427.125,91.4913 426.3594,91.4913 C424.3125,91.4913 423.0156,90.3975 423.0156,88.6944 L423.0156,87.6006 C423.0156,85.8194 424.2656,84.5069 426,84.5069 C426.5781,84.5069 427.1875,84.6631 427.6563,84.9131 C428.1406,85.1944 428.3125,85.4131 428.4063,85.8194 C428.4688,86.2256 428.5,86.3506 428.6406,86.4756 C428.7813,86.6163 429.0156,86.7256 429.2344,86.7256 C429.5,86.7256 429.7656,86.585 429.9375,86.3663 C430.0469,86.21 430.0781,86.0225 430.0781,85.6006 L430.0781,84.1788 C430.0781,83.7413 430.0625,83.6163 429.9688,83.46 C429.8125,83.1944 429.5313,83.0538 429.2344,83.0538 C428.9375,83.0538 428.7344,83.1475 428.5156,83.46 L428.3438,83.3819 Z " fill="#000000"/><text fill="#000000" font-family="sans-serif" font-size="14" lengthAdjust="spacing" textLength="20" x="440" y="92.5567">OU</text><line style="stroke:#181818;stroke-width:0.5;" x1="412" x2="462" y1="103.71" y2="103.71"/><line style="stroke:#181818;stroke-width:0.5;" x1="412" x2="462" y1="111.71" y2="111.71"/></g><!--MD5=[7d21836bc254c1dd70ea4a536a3b2154]
class Whitelist--><g id="elem_Whitelist"><rect fill="#F1F1F1" height="48" id="Whitelist" rx="2.5" ry="2.5" style="stroke:#181818;stroke-width:0.5;" width="97" x="417.5" y="208.21"/><ellipse cx="432.5" cy="224.21" fill="#ADD1B2" rx="11" ry="11" style="stroke:#181818;stroke-width:1.0;"/><path d="M434.8438,219.8819 C433.9063,219.4444 433.3125,219.3038 432.4375,219.3038 C429.8125,219.3038 427.8125,221.3819 427.8125,224.1006 L427.8125,225.2256 C427.8125,227.8038 429.9219,229.6944 432.8125,229.6944 C434.0313,229.6944 435.1875,229.3975 435.9375,228.8506 C436.5156,228.4444 436.8438,227.9913 436.8438,227.6006 C436.8438,227.1475 436.4531,226.7569 435.9844,226.7569 C435.7656,226.7569 435.5625,226.835 435.375,227.0225 C434.9219,227.5069 434.9219,227.5069 434.7344,227.6006 C434.3125,227.8663 433.625,227.9913 432.8594,227.9913 C430.8125,227.9913 429.5156,226.8975 429.5156,225.1944 L429.5156,224.1006 C429.5156,222.3194 430.7656,221.0069 432.5,221.0069 C433.0781,221.0069 433.6875,221.1631 434.1563,221.4131 C434.6406,221.6944 434.8125,221.9131 434.9063,222.3194 C434.9688,222.7256 435,222.8506 435.1406,222.9756 C435.2813,223.1163 435.5156,223.2256 435.7344,223.2256 C436,223.2256 436.2656,223.085 436.4375,222.8663 C436.5469,222.71 436.5781,222.5225 436.5781,222.1006 L436.5781,220.6788 C436.5781,220.2413 436.5625,220.1163 436.4688,219.96 C436.3125,219.6944 436.0313,219.5538 435.7344,219.5538 C435.4375,219.5538 435.2344,219.6475 435.0156,219.96 L434.8438,219.8819 Z " fill="#000000"/><text fill="#000000" font-family="sans-serif" font-size="14" lengthAdjust="spacing" textLength="65" x="446.5" y="229.0567">Whitelist</text><line style="stroke:#181818;stroke-width:0.5;" x1="418.5" x2="513.5" y1="240.21" y2="240.21"/><line style="stroke:#181818;stroke-width:0.5;" x1="418.5" x2="513.5" y1="248.21" y2="248.21"/></g><!--MD5=[0f4e49c0b227501aa78d32281b53e7b6]
class AppartenanceAsso--><g id="elem_AppartenanceAsso"><rect fill="#F1F1F1" height="48" id="AppartenanceAsso" rx="2.5" ry="2.5" style="stroke:#181818;stroke-width:0.5;" width="168" x="208" y="71.71"/><ellipse cx="223" cy="87.71" fill="#ADD1B2" rx="11" ry="11" style="stroke:#181818;stroke-width:1.0;"/><path d="M225.3438,83.3819 C224.4063,82.9444 223.8125,82.8038 222.9375,82.8038 C220.3125,82.8038 218.3125,84.8819 218.3125,87.6006 L218.3125,88.7256 C218.3125,91.3038 220.4219,93.1944 223.3125,93.1944 C224.5313,93.1944 225.6875,92.8975 226.4375,92.3506 C227.0156,91.9444 227.3438,91.4913 227.3438,91.1006 C227.3438,90.6475 226.9531,90.2569 226.4844,90.2569 C226.2656,90.2569 226.0625,90.335 225.875,90.5225 C225.4219,91.0069 225.4219,91.0069 225.2344,91.1006 C224.8125,91.3663 224.125,91.4913 223.3594,91.4913 C221.3125,91.4913 220.0156,90.3975 220.0156,88.6944 L220.0156,87.6006 C220.0156,85.8194 221.2656,84.5069 223,84.5069 C223.5781,84.5069 224.1875,84.6631 224.6563,84.9131 C225.1406,85.1944 225.3125,85.4131 225.4063,85.8194 C225.4688,86.2256 225.5,86.3506 225.6406,86.4756 C225.7813,86.6163 226.0156,86.7256 226.2344,86.7256 C226.5,86.7256 226.7656,86.585 226.9375,86.3663 C227.0469,86.21 227.0781,86.0225 227.0781,85.6006 L227.0781,84.1788 C227.0781,83.7413 227.0625,83.6163 226.9688,83.46 C226.8125,83.1944 226.5313,83.0538 226.2344,83.0538 C225.9375,83.0538 225.7344,83.1475 225.5156,83.46 L225.3438,83.3819 Z " fill="#000000"/><text fill="#000000" font-family="sans-serif" font-size="14" lengthAdjust="spacing" textLength="136" x="237" y="92.5567">AppartenanceAsso</text><line style="stroke:#181818;stroke-width:0.5;" x1="209" x2="375" y1="103.71" y2="103.71"/><line style="stroke:#181818;stroke-width:0.5;" x1="209" x2="375" y1="111.71" y2="111.71"/></g><g id="elem_N1"><path d="M758.5,75.71 L758.5,115.9756 L833.5,115.9756 L833.5,85.71 L823.5,75.71 L758.5,75.71 " fill="#FEFFDD" style="stroke:#181818;stroke-width:0.5;"/><path d="M823.5,75.71 L823.5,85.71 L833.5,85.71 L823.5,75.71 " fill="#FEFFDD" style="stroke:#181818;stroke-width:1.0;"/><text fill="#000000" font-family="sans-serif" font-size="13" lengthAdjust="spacing" textLength="50" x="768.5" y="92.7769">'n' ∈ ℕ*</text><text fill="#000000" font-family="sans-serif" font-size="13" lengthAdjust="spacing" textLength="42" x="768.5" y="107.9097">'*' ∈ ℕ</text></g><g id="elem_N3"><path d="M868.5,83.21 L868.5,108.3428 L1009.5,108.3428 L1009.5,93.21 L999.5,83.21 L868.5,83.21 " fill="#FEFFDD" style="stroke:#181818;stroke-width:0.5;"/><path d="M999.5,83.21 L999.5,93.21 L1009.5,93.21 L999.5,83.21 " fill="#FEFFDD" style="stroke:#181818;stroke-width:1.0;"/><text fill="#000000" font-family="sans-serif" font-size="13" lengthAdjust="spacing" textLength="120" x="874.5" y="100.2769">héritages exclusifs</text></g><!--MD5=[d22815ff63be9cac9a63f8d1ea27d033]
class Article--><g id="elem_Article"><rect fill="#F1F1F1" height="80.5938" id="Article" rx="2.5" ry="2.5" style="stroke:#181818;stroke-width:0.5;" width="131" x="540.5" y="348.71"/><ellipse cx="578.45" cy="364.71" fill="#ADD1B2" rx="11" ry="11" style="stroke:#181818;stroke-width:1.0;"/><path d="M580.7938,360.3819 C579.8563,359.9444 579.2625,359.8038 578.3875,359.8038 C575.7625,359.8038 573.7625,361.8819 573.7625,364.6006 L573.7625,365.7256 C573.7625,368.3038 575.8719,370.1944 578.7625,370.1944 C579.9813,370.1944 581.1375,369.8975 581.8875,369.3506 C582.4656,368.9444 582.7938,368.4913 582.7938,368.1006 C582.7938,367.6475 582.4031,367.2569 581.9344,367.2569 C581.7156,367.2569 581.5125,367.335 581.325,367.5225 C580.8719,368.0069 580.8719,368.0069 580.6844,368.1006 C580.2625,368.3663 579.575,368.4913 578.8094,368.4913 C576.7625,368.4913 575.4656,367.3975 575.4656,365.6944 L575.4656,364.6006 C575.4656,362.8194 576.7156,361.5069 578.45,361.5069 C579.0281,361.5069 579.6375,361.6631 580.1063,361.9131 C580.5906,362.1944 580.7625,362.4131 580.8563,362.8194 C580.9188,363.2256 580.95,363.3506 581.0906,363.4756 C581.2313,363.6163 581.4656,363.7256 581.6844,363.7256 C581.95,363.7256 582.2156,363.585 582.3875,363.3663 C582.4969,363.21 582.5281,363.0225 582.5281,362.6006 L582.5281,361.1788 C582.5281,360.7413 582.5125,360.6163 582.4188,360.46 C582.2625,360.1944 581.9813,360.0538 581.6844,360.0538 C581.3875,360.0538 581.1844,360.1475 580.9656,360.46 L580.7938,360.3819 Z " fill="#000000"/><text fill="#000000" font-family="sans-serif" font-size="14" lengthAdjust="spacing" textLength="48" x="597.55" y="369.5567">Article</text><line style="stroke:#181818;stroke-width:0.5;" x1="541.5" x2="670.5" y1="380.71" y2="380.71"/><text fill="#000000" font-family="sans-serif" font-size="14" lengthAdjust="spacing" textLength="28" x="546.5" y="397.7051">prix</text><text fill="#000000" font-family="sans-serif" font-size="14" lengthAdjust="spacing" textLength="119" x="546.5" y="414.002">conditionsVente</text><line style="stroke:#181818;stroke-width:0.5;" x1="541.5" x2="670.5" y1="421.3038" y2="421.3038"/></g><!--MD5=[2f53d364b4e3b7d802afc29f72dce69f]
class Billet--><g id="elem_Billet"><rect fill="#F1F1F1" height="48" id="Billet" rx="2.5" ry="2.5" style="stroke:#181818;stroke-width:0.5;" width="70" x="972" y="509.71"/><ellipse cx="987" cy="525.71" fill="#ADD1B2" rx="11" ry="11" style="stroke:#181818;stroke-width:1.0;"/><path d="M989.3438,521.3819 C988.4063,520.9444 987.8125,520.8038 986.9375,520.8038 C984.3125,520.8038 982.3125,522.8819 982.3125,525.6006 L982.3125,526.7256 C982.3125,529.3038 984.4219,531.1944 987.3125,531.1944 C988.5313,531.1944 989.6875,530.8975 990.4375,530.3506 C991.0156,529.9444 991.3438,529.4913 991.3438,529.1006 C991.3438,528.6475 990.9531,528.2569 990.4844,528.2569 C990.2656,528.2569 990.0625,528.335 989.875,528.5225 C989.4219,529.0069 989.4219,529.0069 989.2344,529.1006 C988.8125,529.3663 988.125,529.4913 987.3594,529.4913 C985.3125,529.4913 984.0156,528.3975 984.0156,526.6944 L984.0156,525.6006 C984.0156,523.8194 985.2656,522.5069 987,522.5069 C987.5781,522.5069 988.1875,522.6631 988.6563,522.9131 C989.1406,523.1944 989.3125,523.4131 989.4063,523.8194 C989.4688,524.2256 989.5,524.3506 989.6406,524.4756 C989.7813,524.6163 990.0156,524.7256 990.2344,524.7256 C990.5,524.7256 990.7656,524.585 990.9375,524.3663 C991.0469,524.21 991.0781,524.0225 991.0781,523.6006 L991.0781,522.1788 C991.0781,521.7413 991.0625,521.6163 990.9688,521.46 C990.8125,521.1944 990.5313,521.0538 990.2344,521.0538 C989.9375,521.0538 989.7344,521.1475 989.5156,521.46 L989.3438,521.3819 Z " fill="#000000"/><text fill="#000000" font-family="sans-serif" font-size="14" lengthAdjust="spacing" textLength="38" x="1001" y="530.5567">Billet</text><line style="stroke:#181818;stroke-width:0.5;" x1="973" x2="1041" y1="541.71" y2="541.71"/><line style="stroke:#181818;stroke-width:0.5;" x1="973" x2="1041" y1="549.71" y2="549.71"/></g><!--MD5=[2edbcacfe33c4b8b7921bdbdbee061c1]
class Asso--><g id="elem_Asso"><rect fill="#F1F1F1" height="48" id="Asso" rx="2.5" ry="2.5" style="stroke:#181818;stroke-width:0.5;" width="65" x="110.5" y="208.21"/><ellipse cx="125.5" cy="224.21" fill="#ADD1B2" rx="11" ry="11" style="stroke:#181818;stroke-width:1.0;"/><path d="M127.8438,219.8819 C126.9063,219.4444 126.3125,219.3038 125.4375,219.3038 C122.8125,219.3038 120.8125,221.3819 120.8125,224.1006 L120.8125,225.2256 C120.8125,227.8038 122.9219,229.6944 125.8125,229.6944 C127.0313,229.6944 128.1875,229.3975 128.9375,228.8506 C129.5156,228.4444 129.8438,227.9913 129.8438,227.6006 C129.8438,227.1475 129.4531,226.7569 128.9844,226.7569 C128.7656,226.7569 128.5625,226.835 128.375,227.0225 C127.9219,227.5069 127.9219,227.5069 127.7344,227.6006 C127.3125,227.8663 126.625,227.9913 125.8594,227.9913 C123.8125,227.9913 122.5156,226.8975 122.5156,225.1944 L122.5156,224.1006 C122.5156,222.3194 123.7656,221.0069 125.5,221.0069 C126.0781,221.0069 126.6875,221.1631 127.1563,221.4131 C127.6406,221.6944 127.8125,221.9131 127.9063,222.3194 C127.9688,222.7256 128,222.8506 128.1406,222.9756 C128.2813,223.1163 128.5156,223.2256 128.7344,223.2256 C129,223.2256 129.2656,223.085 129.4375,222.8663 C129.5469,222.71 129.5781,222.5225 129.5781,222.1006 L129.5781,220.6788 C129.5781,220.2413 129.5625,220.1163 129.4688,219.96 C129.3125,219.6944 129.0313,219.5538 128.7344,219.5538 C128.4375,219.5538 128.2344,219.6475 128.0156,219.96 L127.8438,219.8819 Z " fill="#000000"/><text fill="#000000" font-family="sans-serif" font-size="14" lengthAdjust="spacing" textLength="33" x="139.5" y="229.0567">Asso</text><line style="stroke:#181818;stroke-width:0.5;" x1="111.5" x2="174.5" y1="240.21" y2="240.21"/><line style="stroke:#181818;stroke-width:0.5;" x1="111.5" x2="174.5" y1="248.21" y2="248.21"/></g><!--MD5=[54ed4e501c39eaf02a117ea2ace63d91]
class Événement--><g id="elem_Événement"><rect fill="#F1F1F1" height="48" id="Événement" rx="2.5" ry="2.5" style="stroke:#181818;stroke-width:0.5;" width="115" x="196.5" y="364.71"/><ellipse cx="211.5" cy="380.71" fill="#ADD1B2" rx="11" ry="11" style="stroke:#181818;stroke-width:1.0;"/><path d="M213.8438,376.3819 C212.9063,375.9444 212.3125,375.8038 211.4375,375.8038 C208.8125,375.8038 206.8125,377.8819 206.8125,380.6006 L206.8125,381.7256 C206.8125,384.3038 208.9219,386.1944 211.8125,386.1944 C213.0313,386.1944 214.1875,385.8975 214.9375,385.3506 C215.5156,384.9444 215.8438,384.4913 215.8438,384.1006 C215.8438,383.6475 215.4531,383.2569 214.9844,383.2569 C214.7656,383.2569 214.5625,383.335 214.375,383.5225 C213.9219,384.0069 213.9219,384.0069 213.7344,384.1006 C213.3125,384.3663 212.625,384.4913 211.8594,384.4913 C209.8125,384.4913 208.5156,383.3975 208.5156,381.6944 L208.5156,380.6006 C208.5156,378.8194 209.7656,377.5069 211.5,377.5069 C212.0781,377.5069 212.6875,377.6631 213.1563,377.9131 C213.6406,378.1944 213.8125,378.4131 213.9063,378.8194 C213.9688,379.2256 214,379.3506 214.1406,379.4756 C214.2813,379.6163 214.5156,379.7256 214.7344,379.7256 C215,379.7256 215.2656,379.585 215.4375,379.3663 C215.5469,379.21 215.5781,379.0225 215.5781,378.6006 L215.5781,377.1788 C215.5781,376.7413 215.5625,376.6163 215.4688,376.46 C215.3125,376.1944 215.0313,376.0538 214.7344,376.0538 C214.4375,376.0538 214.2344,376.1475 214.0156,376.46 L213.8438,376.3819 Z " fill="#000000"/><text fill="#000000" font-family="sans-serif" font-size="14" lengthAdjust="spacing" textLength="83" x="225.5" y="385.5567">Événement</text><line style="stroke:#181818;stroke-width:0.5;" x1="197.5" x2="310.5" y1="396.71" y2="396.71"/><line style="stroke:#181818;stroke-width:0.5;" x1="197.5" x2="310.5" y1="404.71" y2="404.71"/></g><g id="elem_N2"><path d="M6,638.71 L6,678.9756 L336,678.9756 L336,648.71 L326,638.71 L6,638.71 " fill="#FEFFDD" style="stroke:#181818;stroke-width:0.5;"/><path d="M326,638.71 L326,648.71 L336,648.71 L326,638.71 " fill="#FEFFDD" style="stroke:#181818;stroke-width:1.0;"/><text fill="#000000" font-family="sans-serif" font-size="13" lengthAdjust="spacing" textLength="309" x="12" y="655.7769">'vend' un Article donnant accès à une Zone d'un</text><text fill="#000000" font-family="sans-serif" font-size="13" lengthAdjust="spacing" textLength="299" x="12" y="670.9097">Événement implique 'organise' cet événement</text></g><!--MD5=[ad801415d4a054e52db0882645a380ef]
class Zone--><g id="elem_Zone"><rect fill="#F1F1F1" height="48" id="Zone" rx="2.5" ry="2.5" style="stroke:#181818;stroke-width:0.5;" width="69" x="219.5" y="509.71"/><ellipse cx="234.5" cy="525.71" fill="#ADD1B2" rx="11" ry="11" style="stroke:#181818;stroke-width:1.0;"/><path d="M236.8438,521.3819 C235.9063,520.9444 235.3125,520.8038 234.4375,520.8038 C231.8125,520.8038 229.8125,522.8819 229.8125,525.6006 L229.8125,526.7256 C229.8125,529.3038 231.9219,531.1944 234.8125,531.1944 C236.0313,531.1944 237.1875,530.8975 237.9375,530.3506 C238.5156,529.9444 238.8438,529.4913 238.8438,529.1006 C238.8438,528.6475 238.4531,528.2569 237.9844,528.2569 C237.7656,528.2569 237.5625,528.335 237.375,528.5225 C236.9219,529.0069 236.9219,529.0069 236.7344,529.1006 C236.3125,529.3663 235.625,529.4913 234.8594,529.4913 C232.8125,529.4913 231.5156,528.3975 231.5156,526.6944 L231.5156,525.6006 C231.5156,523.8194 232.7656,522.5069 234.5,522.5069 C235.0781,522.5069 235.6875,522.6631 236.1563,522.9131 C236.6406,523.1944 236.8125,523.4131 236.9063,523.8194 C236.9688,524.2256 237,524.3506 237.1406,524.4756 C237.2813,524.6163 237.5156,524.7256 237.7344,524.7256 C238,524.7256 238.2656,524.585 238.4375,524.3663 C238.5469,524.21 238.5781,524.0225 238.5781,523.6006 L238.5781,522.1788 C238.5781,521.7413 238.5625,521.6163 238.4688,521.46 C238.3125,521.1944 238.0313,521.0538 237.7344,521.0538 C237.4375,521.0538 237.2344,521.1475 237.0156,521.46 L236.8438,521.3819 Z " fill="#000000"/><text fill="#000000" font-family="sans-serif" font-size="14" lengthAdjust="spacing" textLength="37" x="248.5" y="530.5567">Zone</text><line style="stroke:#181818;stroke-width:0.5;" x1="220.5" x2="287.5" y1="541.71" y2="541.71"/><line style="stroke:#181818;stroke-width:0.5;" x1="220.5" x2="287.5" y1="549.71" y2="549.71"/></g><!--MD5=[804271b81fc64b7630cb581c84c60fa1]
class Pers_portail--><g id="elem_Pers_portail"><rect fill="#F1F1F1" height="48" id="Pers_portail" rx="2.5" ry="2.5" style="stroke:#181818;stroke-width:0.5;" width="118" x="1100" y="208.21"/><ellipse cx="1115" cy="224.21" fill="#ADD1B2" rx="11" ry="11" style="stroke:#181818;stroke-width:1.0;"/><path d="M1117.3438,219.8819 C1116.4063,219.4444 1115.8125,219.3038 1114.9375,219.3038 C1112.3125,219.3038 1110.3125,221.3819 1110.3125,224.1006 L1110.3125,225.2256 C1110.3125,227.8038 1112.4219,229.6944 1115.3125,229.6944 C1116.5313,229.6944 1117.6875,229.3975 1118.4375,228.8506 C1119.0156,228.4444 1119.3438,227.9913 1119.3438,227.6006 C1119.3438,227.1475 1118.9531,226.7569 1118.4844,226.7569 C1118.2656,226.7569 1118.0625,226.835 1117.875,227.0225 C1117.4219,227.5069 1117.4219,227.5069 1117.2344,227.6006 C1116.8125,227.8663 1116.125,227.9913 1115.3594,227.9913 C1113.3125,227.9913 1112.0156,226.8975 1112.0156,225.1944 L1112.0156,224.1006 C1112.0156,222.3194 1113.2656,221.0069 1115,221.0069 C1115.5781,221.0069 1116.1875,221.1631 1116.6563,221.4131 C1117.1406,221.6944 1117.3125,221.9131 1117.4063,222.3194 C1117.4688,222.7256 1117.5,222.8506 1117.6406,222.9756 C1117.7813,223.1163 1118.0156,223.2256 1118.2344,223.2256 C1118.5,223.2256 1118.7656,223.085 1118.9375,222.8663 C1119.0469,222.71 1119.0781,222.5225 1119.0781,222.1006 L1119.0781,220.6788 C1119.0781,220.2413 1119.0625,220.1163 1118.9688,219.96 C1118.8125,219.6944 1118.5313,219.5538 1118.2344,219.5538 C1117.9375,219.5538 1117.7344,219.6475 1117.5156,219.96 L1117.3438,219.8819 Z " fill="#000000"/><text fill="#000000" font-family="sans-serif" font-size="14" lengthAdjust="spacing" textLength="86" x="1129" y="229.0567">Pers_portail</text><line style="stroke:#181818;stroke-width:0.5;" x1="1101" x2="1217" y1="240.21" y2="240.21"/><line style="stroke:#181818;stroke-width:0.5;" x1="1101" x2="1217" y1="248.21" y2="248.21"/></g><!--MD5=[4337fef93a4164fb5e17f09a2ace23d6]
class Personne--><g id="elem_Personne"><rect fill="#F1F1F1" height="48" id="Personne" rx="2.5" ry="2.5" style="stroke:#181818;stroke-width:0.5;" width="99" x="1033.5" y="634.71"/><ellipse cx="1048.5" cy="650.71" fill="#ADD1B2" rx="11" ry="11" style="stroke:#181818;stroke-width:1.0;"/><path d="M1050.8438,646.3819 C1049.9063,645.9444 1049.3125,645.8038 1048.4375,645.8038 C1045.8125,645.8038 1043.8125,647.8819 1043.8125,650.6006 L1043.8125,651.7256 C1043.8125,654.3038 1045.9219,656.1944 1048.8125,656.1944 C1050.0313,656.1944 1051.1875,655.8975 1051.9375,655.3506 C1052.5156,654.9444 1052.8438,654.4913 1052.8438,654.1006 C1052.8438,653.6475 1052.4531,653.2569 1051.9844,653.2569 C1051.7656,653.2569 1051.5625,653.335 1051.375,653.5225 C1050.9219,654.0069 1050.9219,654.0069 1050.7344,654.1006 C1050.3125,654.3663 1049.625,654.4913 1048.8594,654.4913 C1046.8125,654.4913 1045.5156,653.3975 1045.5156,651.6944 L1045.5156,650.6006 C1045.5156,648.8194 1046.7656,647.5069 1048.5,647.5069 C1049.0781,647.5069 1049.6875,647.6631 1050.1563,647.9131 C1050.6406,648.1944 1050.8125,648.4131 1050.9063,648.8194 C1050.9688,649.2256 1051,649.3506 1051.1406,649.4756 C1051.2813,649.6163 1051.5156,649.7256 1051.7344,649.7256 C1052,649.7256 1052.2656,649.585 1052.4375,649.3663 C1052.5469,649.21 1052.5781,649.0225 1052.5781,648.6006 L1052.5781,647.1788 C1052.5781,646.7413 1052.5625,646.6163 1052.4688,646.46 C1052.3125,646.1944 1052.0313,646.0538 1051.7344,646.0538 C1051.4375,646.0538 1051.2344,646.1475 1051.0156,646.46 L1050.8438,646.3819 Z " fill="#000000"/><text fill="#000000" font-family="sans-serif" font-size="14" lengthAdjust="spacing" textLength="67" x="1062.5" y="655.5567">Personne</text><line style="stroke:#181818;stroke-width:0.5;" x1="1034.5" x2="1131.5" y1="666.71" y2="666.71"/><line style="stroke:#181818;stroke-width:0.5;" x1="1034.5" x2="1131.5" y1="674.71" y2="674.71"/></g><!--MD5=[cf32993cb9dd6ce7cfae8cc07e1d3833]
class ContratVente--><g id="elem_ContratVente"><rect fill="#F1F1F1" height="48" id="ContratVente" rx="2.5" ry="2.5" style="stroke:#181818;stroke-width:0.5;" width="132" x="941" y="364.71"/><ellipse cx="956" cy="380.71" fill="#ADD1B2" rx="11" ry="11" style="stroke:#181818;stroke-width:1.0;"/><path d="M958.3438,376.3819 C957.4063,375.9444 956.8125,375.8038 955.9375,375.8038 C953.3125,375.8038 951.3125,377.8819 951.3125,380.6006 L951.3125,381.7256 C951.3125,384.3038 953.4219,386.1944 956.3125,386.1944 C957.5313,386.1944 958.6875,385.8975 959.4375,385.3506 C960.0156,384.9444 960.3438,384.4913 960.3438,384.1006 C960.3438,383.6475 959.9531,383.2569 959.4844,383.2569 C959.2656,383.2569 959.0625,383.335 958.875,383.5225 C958.4219,384.0069 958.4219,384.0069 958.2344,384.1006 C957.8125,384.3663 957.125,384.4913 956.3594,384.4913 C954.3125,384.4913 953.0156,383.3975 953.0156,381.6944 L953.0156,380.6006 C953.0156,378.8194 954.2656,377.5069 956,377.5069 C956.5781,377.5069 957.1875,377.6631 957.6563,377.9131 C958.1406,378.1944 958.3125,378.4131 958.4063,378.8194 C958.4688,379.2256 958.5,379.3506 958.6406,379.4756 C958.7813,379.6163 959.0156,379.7256 959.2344,379.7256 C959.5,379.7256 959.7656,379.585 959.9375,379.3663 C960.0469,379.21 960.0781,379.0225 960.0781,378.6006 L960.0781,377.1788 C960.0781,376.7413 960.0625,376.6163 959.9688,376.46 C959.8125,376.1944 959.5313,376.0538 959.2344,376.0538 C958.9375,376.0538 958.7344,376.1475 958.5156,376.46 L958.3438,376.3819 Z " fill="#000000"/><text fill="#000000" font-family="sans-serif" font-size="14" lengthAdjust="spacing" textLength="100" x="970" y="385.5567">ContratVente</text><line style="stroke:#181818;stroke-width:0.5;" x1="942" x2="1072" y1="396.71" y2="396.71"/><line style="stroke:#181818;stroke-width:0.5;" x1="942" x2="1072" y1="404.71" y2="404.71"/></g><g id="elem_N4"><path d="M755.5,196.71 L755.5,267.2413 L1064.5,267.2413 L1064.5,206.71 L1054.5,196.71 L755.5,196.71 " fill="#FEFFDD" style="stroke:#181818;stroke-width:0.5;"/><path d="M1054.5,196.71 L1054.5,206.71 L1064.5,206.71 L1054.5,196.71 " fill="#FEFFDD" style="stroke:#181818;stroke-width:1.0;"/><text fill="#000000" font-family="sans-serif" font-size="13" lengthAdjust="spacing" textLength="288" x="761.5" y="213.7769">Le contrat de vente consiste en l'acceptation</text><text fill="#000000" font-family="sans-serif" font-size="13" lengthAdjust="spacing" textLength="271" x="761.5" y="228.9097">des conditions de vente de chaque article,</text><text fill="#000000" font-family="sans-serif" font-size="13" lengthAdjust="spacing" textLength="233" x="761.5" y="244.0425">ainsi que d'un engagement financier</text><text fill="#000000" font-family="sans-serif" font-size="13" lengthAdjust="spacing" textLength="224" x="761.5" y="259.1753">si l'un des articles a un prix non nul</text></g><!--MD5=[0836fea356b9b488a49fe7c8874be4bb]
link Article to Billet--><g id="link_Article_Billet"><path codeLine="6" d="M679.55,415.938 C766.261,446.86 906.786,496.973 971.861,520.179 " fill="none" id="Article-Billet" style="stroke:#181818;stroke-width:1.0;"/><polygon fill="#000000" points="854.2905,469.597,861.8229,475.4033,863.7972,469.8669,854.2905,469.597" style="stroke:#000000;stroke-width:1.0;"/><text fill="#000000" font-family="sans-serif" font-size="13" lengthAdjust="spacing" textLength="85" x="868" y="475.7769">donne droit à</text><text fill="#000000" font-family="sans-serif" font-size="13" lengthAdjust="spacing" textLength="8" x="679.55" y="413.0049">1</text><text fill="#000000" font-family="sans-serif" font-size="13" lengthAdjust="spacing" textLength="7" x="956.8917" y="512.9219">*</text></g><!--MD5=[d9e17217fe18eefc274e03cb5c8bfbfd]
link Asso to Article--><g id="link_Asso_Article"><path codeLine="8" d="M161.896,256.235 C170.249,264.998 180.73,274.288 192,280.21 C226.143,298.151 239.49,288.728 277,297.71 C365.254,318.843 465.746,346.927 532.196,366.066 " fill="none" id="Asso-Article" style="stroke:#181818;stroke-width:1.0;"/><polygon fill="#000000" points="350.7936,307.6982,342.9576,302.3086,341.2862,307.9438,350.7936,307.6982" style="stroke:#000000;stroke-width:1.0;"/><text fill="#000000" font-family="sans-serif" font-size="13" lengthAdjust="spacing" textLength="32" x="355" y="310.7769">vend</text><text fill="#000000" font-family="sans-serif" font-size="13" lengthAdjust="spacing" textLength="8" x="167.7631" y="276.3972">1</text><text fill="#000000" font-family="sans-serif" font-size="13" lengthAdjust="spacing" textLength="7" x="525.196" y="363.1329">*</text></g><!--MD5=[881d5e48a67ed413fadeb17d9130fb67]
link Asso to Événement--><g id="link_Asso_Événement"><path codeLine="9" d="M159.618,256.34 C180.604,285.551 216.496,335.509 237.45,364.674 " fill="none" id="Asso-Événement" style="stroke:#181818;stroke-width:1.0;"/><polygon fill="#000000" points="206.9174,310.3371,204.0266,301.2765,199.253,304.706,206.9174,310.3371" style="stroke:#000000;stroke-width:1.0;"/><text fill="#000000" font-family="sans-serif" font-size="13" lengthAdjust="spacing" textLength="55" x="213" y="310.7769">organise</text><text fill="#000000" font-family="sans-serif" font-size="13" lengthAdjust="spacing" textLength="8" x="154.6936" y="276.1329">1</text><text fill="#000000" font-family="sans-serif" font-size="13" lengthAdjust="spacing" textLength="7" x="225.3122" y="353.6768">*</text></g><!--MD5=[9f4f4afda8b6cc37b8e0116f42318bcb]
link Asso to N2--><g id="link_Asso_N2"><path codeLine="12" d="M144.525,256.334 C149.49,331.596 165.129,568.699 169.721,638.313 " fill="none" id="Asso-N2" style="stroke:#181818;stroke-width:1.0;stroke-dasharray:7.0,7.0;"/></g><!--MD5=[75f79661c74905d24f9f14b7646563d9]
link Zone to N2--><g id="link_Zone_N2"><path codeLine="13" d="M238.388,557.845 C222.704,581.088 198.806,616.5042 184.084,638.3199 " fill="none" id="Zone-N2" style="stroke:#181818;stroke-width:1.0;stroke-dasharray:7.0,7.0;"/></g><!--MD5=[84265490c718be82bdc52f8cb644c8c3]
reverse link Événement to Zone--><g id="link_Événement_Zone"><path codeLine="15" d="M254,426.199 C254,452.385 254,486.889 254,509.426 " fill="none" id="Événement-backto-Zone" style="stroke:#181818;stroke-width:1.0;"/><polygon fill="#181818" points="254,413.004,250,419.004,254,425.004,258,419.004,254,413.004" style="stroke:#181818;stroke-width:1.0;"/><text fill="#000000" font-family="sans-serif" font-size="13" lengthAdjust="spacing" textLength="8" x="245.025" y="432.8369">1</text><text fill="#000000" font-family="sans-serif" font-size="13" lengthAdjust="spacing" textLength="8" x="245.025" y="498.7617">n</text></g><!--MD5=[e6273e14926bd56e16990f521486a446]
link Article to Zone--><g id="link_Article_Zone"><path codeLine="16" d="M532.209,419.687 C457.417,450.072 344.939,495.766 288.66,518.629 " fill="none" id="Article-Zone" style="stroke:#181818;stroke-width:1.0;"/><polygon fill="#000000" points="420.3677,473.1583,429.8538,472.4767,427.6415,467.0311,420.3677,473.1583" style="stroke:#000000;stroke-width:1.0;"/><text fill="#000000" font-family="sans-serif" font-size="13" lengthAdjust="spacing" textLength="93" x="434" y="475.7769">donne accès à</text><text fill="#000000" font-family="sans-serif" font-size="13" lengthAdjust="spacing" textLength="7" x="525.209" y="416.7539">*</text><text fill="#000000" font-family="sans-serif" font-size="13" lengthAdjust="spacing" textLength="7" x="296.5305" y="511.0523">*</text></g><!--MD5=[2b1a0a0b0c46cc1555fc1307021ff80f]
link Pers_portail to Personne--><g id="link_Pers_portail_Personne"><path codeLine="18" d="M1160.48,256.299 C1163.51,316.059 1166.58,479.845 1120,604.71 C1118.39,609.0241 1116.35,613.3168 1114.05,617.4841 " fill="none" id="Pers_portail-to-Personne" style="stroke:#181818;stroke-width:1.0;"/><polygon fill="none" points="1119.68,621.671,1102.91,634.6284,1107.94,614.0436,1119.68,621.671" style="stroke:#181818;stroke-width:1.0;"/></g><!--MD5=[744acfef2b9d9e5cdddd857ba9e90358]
link Billet to Personne--><g id="link_Billet_Personne"><path codeLine="20" d="M1008.67,557.788 C1010.54,572.118 1014.53,590.4551 1023,604.71 C1029.74,616.0621 1039.74,626.2875 1049.66,634.659 " fill="none" id="Billet-Personne" style="stroke:#181818;stroke-width:1.0;"/><polygon fill="#000000" points="1025.6474,591.8645,1027.31,601.2286,1032.4966,598.4629,1025.6474,591.8645" style="stroke:#000000;stroke-width:1.0;"/><text fill="#000000" font-family="sans-serif" font-size="13" lengthAdjust="spacing" textLength="78" x="1037" y="600.7769">bénéficie de</text><text fill="#000000" font-family="sans-serif" font-size="13" lengthAdjust="spacing" textLength="7" x="1001.1973" y="577.9638">*</text><text fill="#000000" font-family="sans-serif" font-size="13" lengthAdjust="spacing" textLength="8" x="1032.0916" y="623.658">1</text></g><!--MD5=[ba5b3c1901d7e08976b0cec6ed8776da]
link Pers_portail to ContratVente--><g id="link_Pers_portail_ContratVente"><path codeLine="23" d="M1136.24,256.34 C1107.51,285.551 1058.36,335.509 1029.66,364.674 " fill="none" id="Pers_portail-ContratVente" style="stroke:#181818;stroke-width:1.0;"/><text fill="#000000" font-family="sans-serif" font-size="13" lengthAdjust="spacing" textLength="8" x="1121.7173" y="276.1329">1</text><text fill="#000000" font-family="sans-serif" font-size="13" lengthAdjust="spacing" textLength="7" x="1027.5698" y="353.6768">*</text></g><!--MD5=[1b289051aa3b84e76bf9d3465bf556c4]
link ContratVente to Billet--><g id="link_ContratVente_Billet"><path codeLine="24" d="M1007,413.004 C1007,439.595 1007,482.839 1007,509.426 " fill="none" id="ContratVente-Billet" style="stroke:#181818;stroke-width:1.0;"/><polygon fill="#000000" points="1012,466.2764,1009.0611,475.3215,1014.9389,475.3215,1012,466.2764" style="stroke:#000000;stroke-width:1.0;"/><text fill="#000000" font-family="sans-serif" font-size="13" lengthAdjust="spacing" textLength="65" x="1021" y="475.7769">cédé sous</text><text fill="#000000" font-family="sans-serif" font-size="13" lengthAdjust="spacing" textLength="8" x="998.025" y="432.8369">1</text><text fill="#000000" font-family="sans-serif" font-size="13" lengthAdjust="spacing" textLength="8" x="998.025" y="498.7617">n</text></g><!--MD5=[6c1a7f370497a66312876e82b4feecbf]
link N4 to ContratVente--><g id="link_N4_ContratVente"><path codeLine="26" d="M931.769,267.883 C950.313,297.42 976.44,339.035 992.519,364.645 " fill="none" id="N4-ContratVente" style="stroke:#181818;stroke-width:1.0;stroke-dasharray:7.0,7.0;"/></g><!--MD5=[5c6bed245669e57fdc6ea7ebfe2404a1]
link N4 to Article--><g id="link_N4_Article"><path codeLine="27" d="M882.669,267.819 C842.276,314.729 761.777,392.71 673,392.71 " fill="none" id="N4-Article" style="stroke:#181818;stroke-width:1.0;stroke-dasharray:7.0,7.0;"/></g><!--MD5=[42923ceb25574779562544e5f25e8c6c]
link OperateurDroit to DroitArticle--><g id="link_OperateurDroit_DroitArticle"><path codeLine="37" d="M629.675,119.814 C622.379,128.47 615.156,138.856 611,149.71 C606.477,161.522 604.499,175.001 603.842,187.55 " fill="none" id="OperateurDroit-to-DroitArticle" style="stroke:#181818;stroke-width:1.0;"/><polygon fill="none" points="610.841,187.964,603.793,207.947,596.841,187.93,610.841,187.964" style="stroke:#181818;stroke-width:1.0;"/></g><!--MD5=[42923ceb25574779562544e5f25e8c6c]
link OperateurDroit to DroitArticle--><g id="link_OperateurDroit_DroitArticle"><path codeLine="38" d="M644.92,119.831 C636.312,144.467 622.76,183.248 614.131,207.94 " fill="none" id="OperateurDroit-DroitArticle" style="stroke:#181818;stroke-width:1.0;"/><polygon fill="#000000" points="639.6494,153.5563,633.8912,161.1256,639.44,163.0646,639.6494,153.5563" style="stroke:#000000;stroke-width:1.0;"/><text fill="#000000" font-family="sans-serif" font-size="13" lengthAdjust="spacing" textLength="61" x="647" y="162.7769">opérande</text><text fill="#000000" font-family="sans-serif" font-size="13" lengthAdjust="spacing" textLength="24" x="616.0255" y="139.6217">0..1</text><text fill="#000000" font-family="sans-serif" font-size="13" lengthAdjust="spacing" textLength="8" x="607.1379" y="197.2791">n</text></g><!--MD5=[cca1543b3dbe2929851938ad95c7f225]
link ET to OperateurDroit--><g id="link_ET_OperateurDroit"><path codeLine="39" d="M548.137,95.71 C553.033,95.71 557.929,95.71 562.826,95.71 " fill="none" id="ET-to-OperateurDroit" style="stroke:#181818;stroke-width:1.0;"/><polygon fill="none" points="562.955,88.71,582.955,95.71,562.955,102.71,562.955,88.71" style="stroke:#181818;stroke-width:1.0;"/></g><!--MD5=[15314480efe496882397e2577da46182]
link OU to OperateurDroit--><g id="link_OU_OperateurDroit"><path codeLine="40" d="M445.99,71.532 C455.244,50.916 471.947,23.163 497.5,13.71 C518.342,6 526.479,6.502 547.5,13.71 C573.257,22.543 597.574,40.515 616.356,57.388 " fill="none" id="OU-to-OperateurDroit" style="stroke:#181818;stroke-width:1.0;"/><polygon fill="none" points="621.386,52.512,631.037,71.376,611.729,62.648,621.386,52.512" style="stroke:#181818;stroke-width:1.0;"/></g><!--MD5=[2d29ffb0de944ddd2f05fcdbf7dda04f]
link Whitelist to DroitArticle--><g id="link_Whitelist_DroitArticle"><path codeLine="41" d="M514.672,232.21 C519.538,232.21 524.404,232.21 529.271,232.21 " fill="none" id="Whitelist-to-DroitArticle" style="stroke:#181818;stroke-width:1.0;"/><polygon fill="none" points="529.277,225.21,549.277,232.21,529.277,239.21,529.277,225.21" style="stroke:#181818;stroke-width:1.0;"/></g><!--MD5=[991649e61e545d569f03e67e6dc9368d]
link AppartenanceAsso to DroitArticle--><g id="link_AppartenanceAsso_DroitArticle"><path codeLine="42" d="M349.505,119.888 C398.303,139.744 470.053,169.378 532,196.71 C534.17,197.668 536.373,198.647 538.595,199.642 " fill="none" id="AppartenanceAsso-to-DroitArticle" style="stroke:#181818;stroke-width:1.0;"/><polygon fill="none" points="541.867,193.441,557.17,208.096,536.067,206.183,541.867,193.441" style="stroke:#181818;stroke-width:1.0;"/></g><!--MD5=[6a16ac192a439a964cce9d3c66a3336e]
link AppartenanceAsso to Asso--><g id="link_AppartenanceAsso_Asso"><path codeLine="43" d="M266.386,119.831 C239.095,144.467 196.133,183.248 168.778,207.94 " fill="none" id="AppartenanceAsso-Asso" style="stroke:#181818;stroke-width:1.0;"/><text fill="#000000" font-family="sans-serif" font-size="13" lengthAdjust="spacing" textLength="7" x="252.2895" y="139.6217">*</text><text fill="#000000" font-family="sans-serif" font-size="13" lengthAdjust="spacing" textLength="8" x="166.0864" y="197.2791">n</text></g><!--MD5=[a9762282c7d54bdc9fce5fd3d99e4781]
link Article to DroitArticle--><g id="link_Article_DroitArticle"><path codeLine="44" d="M606,344.516 C606,315.933 606,279.574 606,256.34 " fill="none" id="Article-DroitArticle" style="stroke:#181818;stroke-width:1.0;"/><polygon fill="#000000" points="611,301.2764,608.0611,310.3215,613.9389,310.3215,611,301.2764" style="stroke:#000000;stroke-width:1.0;"/><text fill="#000000" font-family="sans-serif" font-size="13" lengthAdjust="spacing" textLength="61" x="620" y="310.7769">réservé à</text><text fill="#000000" font-family="sans-serif" font-size="13" lengthAdjust="spacing" textLength="8" x="597.6938" y="337.6074">1</text><text fill="#000000" font-family="sans-serif" font-size="13" lengthAdjust="spacing" textLength="24" x="579.075" y="276.1329">0..1</text></g><!--MD5=[0178178b694ea2ac7a9f2e4e9f2a5b02]
@startuml
skinparam groupInheritance 2

note " 'n' ∈ ℕ*\n '*' ∈ ℕ" as N1
note "héritages exclusifs" as N3

Article "1" - - "*" Billet : donne droit à <

Asso "1" - - "*" Article : vend >
Asso "1" - - "*" Événement : organise >

note "'vend' un Article donnant accès à une Zone d'un\nÉvénement implique 'organise' cet événement" as N2
Asso .. N2
Zone .. N2

Événement "1" *- - "n" Zone
Article "*" - "*" Zone : donne accès à >

Pers_portail -|> Personne

Billet "*" - - "1" Personne : bénéficie de <


Pers_portail "1" - - "*" ContratVente
ContratVente "1" - - "n" Billet : cédé sous <
note "Le contrat de vente consiste en l'acceptation\ndes conditions de vente de chaque article,\nainsi que d'un engagement financier\nsi l'un des articles a un prix non nul" as N4
N4 .. ContratVente
N4 .. Article::prix


Article : prix
Article : conditionsVente

package "Droit d'accès aux articles" #DDDDDD {

abstract DroitArticle
abstract OperateurDroit
OperateurDroit - -|> DroitArticle
OperateurDroit "0..1" - - "n" DroitArticle : opérande <
ET -|> OperateurDroit
OU -|> OperateurDroit
Whitelist -|> DroitArticle
AppartenanceAsso - -|> DroitArticle
AppartenanceAsso "*" - - "n" Asso
Article "1" - - "0..1" DroitArticle : réservé à >

}
@enduml

PlantUML version 1.2022.3beta2(Unknown compile time)
(GPL source distribution)
Java Runtime: Java(TM) SE Runtime Environment
JVM: Java HotSpot(TM) 64-Bit Server VM
Default Encoding: UTF-8
Language: en
Country: US
--></g></svg>