<?xml version="1.0" encoding="UTF-8" standalone="no"?><svg xmlns="http://www.w3.org/2000/svg" xmlns:xlink="http://www.w3.org/1999/xlink" contentStyleType="text/css" height="632px" preserveAspectRatio="none" style="width:1093px;height:632px;background:#FFFFFF;" version="1.1" viewBox="0 0 1093 632" width="1093px" zoomAndPan="magnify"><defs/><g><!--MD5=[5d629d429a47bb608275b4858e578455]
cluster Description des permissions d'accès à la vente des articles--><g id="cluster_Description des permissions d'accès à la vente des articles"><path d="M91,36.71 L571,36.71 A3.75,3.75 0 0 1 573.5,39.21 L580.5,59.0069 L599,59.0069 A2.5,2.5 0 0 1 601.5,61.5069 L601.5,282.71 A2.5,2.5 0 0 1 599,285.21 L91,285.21 A2.5,2.5 0 0 1 88.5,282.71 L88.5,39.21 A2.5,2.5 0 0 1 91,36.71 " fill="#DDDDDD" style="stroke:#000000;stroke-width:1.5;"/><line style="stroke:#000000;stroke-width:1.5;" x1="88.5" x2="580.5" y1="59.0069" y2="59.0069"/><text fill="#000000" font-family="sans-serif" font-size="14" font-weight="bold" lengthAdjust="spacing" textLength="479" x="92.5" y="51.7051">Description des permissions d'accès à la vente des articles</text></g><!--MD5=[31415e4697a9fcbd530f15ebce604aa0]
class PermissionArticle--><g id="elem_PermissionArticle"><rect codeLine="38" fill="#F1F1F1" height="48" id="PermissionArticle" rx="2.5" ry="2.5" style="stroke:#181818;stroke-width:0.5;" width="155" x="296" y="221.21"/><ellipse cx="311" cy="237.21" fill="#A9DCDF" rx="11" ry="11" style="stroke:#181818;stroke-width:1.0;"/><path d="M313.0781,239.0225 L313.4688,240.0069 L313.0781,240.0069 C312.625,240.0069 312.5156,240.0225 312.3594,240.1319 C312.1094,240.2881 311.9531,240.5694 311.9531,240.8663 C311.9531,241.1319 312.0938,241.3819 312.3125,241.5381 C312.4531,241.6631 312.6563,241.71 313.0781,241.71 L315.4375,241.71 C315.7969,241.71 316.0156,241.6788 316.1563,241.585 C316.4063,241.4444 316.5625,241.1475 316.5625,240.8663 C316.5625,240.585 316.4219,240.335 316.2031,240.1788 C316.0313,240.0381 315.875,240.0069 315.4063,240.0069 L312.0156,231.8038 L308.3438,231.8038 C307.8906,231.8038 307.7656,231.8194 307.6094,231.9131 C307.3594,232.085 307.2031,232.3663 307.2031,232.6475 C307.2031,232.9288 307.3438,233.1788 307.5625,233.3506 C307.7344,233.46 307.9063,233.4913 308.3438,233.4913 L309.4219,233.4913 L306.7813,240.0069 C306.3594,240.0069 306.2031,240.0225 306.0469,240.1319 C305.7969,240.2881 305.6406,240.5694 305.6406,240.8663 C305.6406,241.4288 306.0156,241.71 306.7656,241.71 L309.0313,241.71 C309.3906,241.71 309.6094,241.6788 309.7344,241.585 C310,241.4444 310.1406,241.1475 310.1406,240.8663 C310.1406,240.585 310.0156,240.335 309.7969,240.1631 C309.625,240.0381 309.4844,240.0069 309.0313,240.0069 L308.6406,240.0069 L309.0313,239.0225 L313.0781,239.0225 Z M312.375,237.3194 L309.7031,237.3194 L311.0469,234.0538 L312.375,237.3194 Z " fill="#000000"/><text fill="#000000" font-family="sans-serif" font-size="14" font-style="italic" lengthAdjust="spacing" textLength="123" x="325" y="242.0567">PermissionArticle</text><line style="stroke:#181818;stroke-width:0.5;" x1="297" x2="450" y1="253.21" y2="253.21"/><line style="stroke:#181818;stroke-width:0.5;" x1="297" x2="450" y1="261.21" y2="261.21"/></g><!--MD5=[2795175372094edc9f8bcf82492efc55]
class Operateur--><g id="elem_Operateur"><rect codeLine="39" fill="#F1F1F1" height="48" id="Operateur" rx="2.5" ry="2.5" style="stroke:#181818;stroke-width:0.5;" width="105" x="480" y="71.71"/><ellipse cx="495" cy="87.71" fill="#A9DCDF" rx="11" ry="11" style="stroke:#181818;stroke-width:1.0;"/><path d="M497.0781,89.5225 L497.4688,90.5069 L497.0781,90.5069 C496.625,90.5069 496.5156,90.5225 496.3594,90.6319 C496.1094,90.7881 495.9531,91.0694 495.9531,91.3663 C495.9531,91.6319 496.0938,91.8819 496.3125,92.0381 C496.4531,92.1631 496.6563,92.21 497.0781,92.21 L499.4375,92.21 C499.7969,92.21 500.0156,92.1788 500.1563,92.085 C500.4063,91.9444 500.5625,91.6475 500.5625,91.3663 C500.5625,91.085 500.4219,90.835 500.2031,90.6788 C500.0313,90.5381 499.875,90.5069 499.4063,90.5069 L496.0156,82.3038 L492.3438,82.3038 C491.8906,82.3038 491.7656,82.3194 491.6094,82.4131 C491.3594,82.585 491.2031,82.8663 491.2031,83.1475 C491.2031,83.4288 491.3438,83.6788 491.5625,83.8506 C491.7344,83.96 491.9063,83.9913 492.3438,83.9913 L493.4219,83.9913 L490.7813,90.5069 C490.3594,90.5069 490.2031,90.5225 490.0469,90.6319 C489.7969,90.7881 489.6406,91.0694 489.6406,91.3663 C489.6406,91.9288 490.0156,92.21 490.7656,92.21 L493.0313,92.21 C493.3906,92.21 493.6094,92.1788 493.7344,92.085 C494,91.9444 494.1406,91.6475 494.1406,91.3663 C494.1406,91.085 494.0156,90.835 493.7969,90.6631 C493.625,90.5381 493.4844,90.5069 493.0313,90.5069 L492.6406,90.5069 L493.0313,89.5225 L497.0781,89.5225 Z M496.375,87.8194 L493.7031,87.8194 L495.0469,84.5538 L496.375,87.8194 Z " fill="#000000"/><text fill="#000000" font-family="sans-serif" font-size="14" font-style="italic" lengthAdjust="spacing" textLength="73" x="509" y="92.5567">Operateur</text><line style="stroke:#181818;stroke-width:0.5;" x1="481" x2="584" y1="103.71" y2="103.71"/><line style="stroke:#181818;stroke-width:0.5;" x1="481" x2="584" y1="111.71" y2="111.71"/></g><!--MD5=[808af22bcec075c66affd5e3db49a555]
class ET--><g id="elem_ET"><rect fill="#F1F1F1" height="48" id="ET" rx="2.5" ry="2.5" style="stroke:#181818;stroke-width:0.5;" width="50" x="394.5" y="71.71"/><ellipse cx="409.5" cy="87.71" fill="#ADD1B2" rx="11" ry="11" style="stroke:#181818;stroke-width:1.0;"/><path d="M411.8438,83.3819 C410.9063,82.9444 410.3125,82.8038 409.4375,82.8038 C406.8125,82.8038 404.8125,84.8819 404.8125,87.6006 L404.8125,88.7256 C404.8125,91.3038 406.9219,93.1944 409.8125,93.1944 C411.0313,93.1944 412.1875,92.8975 412.9375,92.3506 C413.5156,91.9444 413.8438,91.4913 413.8438,91.1006 C413.8438,90.6475 413.4531,90.2569 412.9844,90.2569 C412.7656,90.2569 412.5625,90.335 412.375,90.5225 C411.9219,91.0069 411.9219,91.0069 411.7344,91.1006 C411.3125,91.3663 410.625,91.4913 409.8594,91.4913 C407.8125,91.4913 406.5156,90.3975 406.5156,88.6944 L406.5156,87.6006 C406.5156,85.8194 407.7656,84.5069 409.5,84.5069 C410.0781,84.5069 410.6875,84.6631 411.1563,84.9131 C411.6406,85.1944 411.8125,85.4131 411.9063,85.8194 C411.9688,86.2256 412,86.3506 412.1406,86.4756 C412.2813,86.6163 412.5156,86.7256 412.7344,86.7256 C413,86.7256 413.2656,86.585 413.4375,86.3663 C413.5469,86.21 413.5781,86.0225 413.5781,85.6006 L413.5781,84.1788 C413.5781,83.7413 413.5625,83.6163 413.4688,83.46 C413.3125,83.1944 413.0313,83.0538 412.7344,83.0538 C412.4375,83.0538 412.2344,83.1475 412.0156,83.46 L411.8438,83.3819 Z " fill="#000000"/><text fill="#000000" font-family="sans-serif" font-size="14" lengthAdjust="spacing" textLength="18" x="423.5" y="92.5567">ET</text><line style="stroke:#181818;stroke-width:0.5;" x1="395.5" x2="443.5" y1="103.71" y2="103.71"/><line style="stroke:#181818;stroke-width:0.5;" x1="395.5" x2="443.5" y1="111.71" y2="111.71"/></g><!--MD5=[f0972d5ac481fc25081ab59c21378178]
class OU--><g id="elem_OU"><rect fill="#F1F1F1" height="48" id="OU" rx="2.5" ry="2.5" style="stroke:#181818;stroke-width:0.5;" width="52" x="307.5" y="71.71"/><ellipse cx="322.5" cy="87.71" fill="#ADD1B2" rx="11" ry="11" style="stroke:#181818;stroke-width:1.0;"/><path d="M324.8438,83.3819 C323.9063,82.9444 323.3125,82.8038 322.4375,82.8038 C319.8125,82.8038 317.8125,84.8819 317.8125,87.6006 L317.8125,88.7256 C317.8125,91.3038 319.9219,93.1944 322.8125,93.1944 C324.0313,93.1944 325.1875,92.8975 325.9375,92.3506 C326.5156,91.9444 326.8438,91.4913 326.8438,91.1006 C326.8438,90.6475 326.4531,90.2569 325.9844,90.2569 C325.7656,90.2569 325.5625,90.335 325.375,90.5225 C324.9219,91.0069 324.9219,91.0069 324.7344,91.1006 C324.3125,91.3663 323.625,91.4913 322.8594,91.4913 C320.8125,91.4913 319.5156,90.3975 319.5156,88.6944 L319.5156,87.6006 C319.5156,85.8194 320.7656,84.5069 322.5,84.5069 C323.0781,84.5069 323.6875,84.6631 324.1563,84.9131 C324.6406,85.1944 324.8125,85.4131 324.9063,85.8194 C324.9688,86.2256 325,86.3506 325.1406,86.4756 C325.2813,86.6163 325.5156,86.7256 325.7344,86.7256 C326,86.7256 326.2656,86.585 326.4375,86.3663 C326.5469,86.21 326.5781,86.0225 326.5781,85.6006 L326.5781,84.1788 C326.5781,83.7413 326.5625,83.6163 326.4688,83.46 C326.3125,83.1944 326.0313,83.0538 325.7344,83.0538 C325.4375,83.0538 325.2344,83.1475 325.0156,83.46 L324.8438,83.3819 Z " fill="#000000"/><text fill="#000000" font-family="sans-serif" font-size="14" lengthAdjust="spacing" textLength="20" x="336.5" y="92.5567">OU</text><line style="stroke:#181818;stroke-width:0.5;" x1="308.5" x2="358.5" y1="103.71" y2="103.71"/><line style="stroke:#181818;stroke-width:0.5;" x1="308.5" x2="358.5" y1="111.71" y2="111.71"/></g><!--MD5=[7d21836bc254c1dd70ea4a536a3b2154]
class Whitelist--><g id="elem_Whitelist"><rect fill="#F1F1F1" height="48" id="Whitelist" rx="2.5" ry="2.5" style="stroke:#181818;stroke-width:0.5;" width="97" x="486" y="221.21"/><ellipse cx="501" cy="237.21" fill="#ADD1B2" rx="11" ry="11" style="stroke:#181818;stroke-width:1.0;"/><path d="M503.3438,232.8819 C502.4063,232.4444 501.8125,232.3038 500.9375,232.3038 C498.3125,232.3038 496.3125,234.3819 496.3125,237.1006 L496.3125,238.2256 C496.3125,240.8038 498.4219,242.6944 501.3125,242.6944 C502.5313,242.6944 503.6875,242.3975 504.4375,241.8506 C505.0156,241.4444 505.3438,240.9913 505.3438,240.6006 C505.3438,240.1475 504.9531,239.7569 504.4844,239.7569 C504.2656,239.7569 504.0625,239.835 503.875,240.0225 C503.4219,240.5069 503.4219,240.5069 503.2344,240.6006 C502.8125,240.8663 502.125,240.9913 501.3594,240.9913 C499.3125,240.9913 498.0156,239.8975 498.0156,238.1944 L498.0156,237.1006 C498.0156,235.3194 499.2656,234.0069 501,234.0069 C501.5781,234.0069 502.1875,234.1631 502.6563,234.4131 C503.1406,234.6944 503.3125,234.9131 503.4063,235.3194 C503.4688,235.7256 503.5,235.8506 503.6406,235.9756 C503.7813,236.1163 504.0156,236.2256 504.2344,236.2256 C504.5,236.2256 504.7656,236.085 504.9375,235.8663 C505.0469,235.71 505.0781,235.5225 505.0781,235.1006 L505.0781,233.6788 C505.0781,233.2413 505.0625,233.1163 504.9688,232.96 C504.8125,232.6944 504.5313,232.5538 504.2344,232.5538 C503.9375,232.5538 503.7344,232.6475 503.5156,232.96 L503.3438,232.8819 Z " fill="#000000"/><text fill="#000000" font-family="sans-serif" font-size="14" lengthAdjust="spacing" textLength="65" x="515" y="242.0567">Whitelist</text><line style="stroke:#181818;stroke-width:0.5;" x1="487" x2="582" y1="253.21" y2="253.21"/><line style="stroke:#181818;stroke-width:0.5;" x1="487" x2="582" y1="261.21" y2="261.21"/></g><!--MD5=[0f4e49c0b227501aa78d32281b53e7b6]
class AppartenanceAsso--><g id="elem_AppartenanceAsso"><rect fill="#F1F1F1" height="48" id="AppartenanceAsso" rx="2.5" ry="2.5" style="stroke:#181818;stroke-width:0.5;" width="168" x="104.5" y="71.71"/><ellipse cx="119.5" cy="87.71" fill="#ADD1B2" rx="11" ry="11" style="stroke:#181818;stroke-width:1.0;"/><path d="M121.8438,83.3819 C120.9063,82.9444 120.3125,82.8038 119.4375,82.8038 C116.8125,82.8038 114.8125,84.8819 114.8125,87.6006 L114.8125,88.7256 C114.8125,91.3038 116.9219,93.1944 119.8125,93.1944 C121.0313,93.1944 122.1875,92.8975 122.9375,92.3506 C123.5156,91.9444 123.8438,91.4913 123.8438,91.1006 C123.8438,90.6475 123.4531,90.2569 122.9844,90.2569 C122.7656,90.2569 122.5625,90.335 122.375,90.5225 C121.9219,91.0069 121.9219,91.0069 121.7344,91.1006 C121.3125,91.3663 120.625,91.4913 119.8594,91.4913 C117.8125,91.4913 116.5156,90.3975 116.5156,88.6944 L116.5156,87.6006 C116.5156,85.8194 117.7656,84.5069 119.5,84.5069 C120.0781,84.5069 120.6875,84.6631 121.1563,84.9131 C121.6406,85.1944 121.8125,85.4131 121.9063,85.8194 C121.9688,86.2256 122,86.3506 122.1406,86.4756 C122.2813,86.6163 122.5156,86.7256 122.7344,86.7256 C123,86.7256 123.2656,86.585 123.4375,86.3663 C123.5469,86.21 123.5781,86.0225 123.5781,85.6006 L123.5781,84.1788 C123.5781,83.7413 123.5625,83.6163 123.4688,83.46 C123.3125,83.1944 123.0313,83.0538 122.7344,83.0538 C122.4375,83.0538 122.2344,83.1475 122.0156,83.46 L121.8438,83.3819 Z " fill="#000000"/><text fill="#000000" font-family="sans-serif" font-size="14" lengthAdjust="spacing" textLength="136" x="133.5" y="92.5567">AppartenanceAsso</text><line style="stroke:#181818;stroke-width:0.5;" x1="105.5" x2="271.5" y1="103.71" y2="103.71"/><line style="stroke:#181818;stroke-width:0.5;" x1="105.5" x2="271.5" y1="111.71" y2="111.71"/></g><g id="elem_N1"><path d="M805,75.71 L805,115.9756 L880,115.9756 L880,85.71 L870,75.71 L805,75.71 " fill="#FEFFDD" style="stroke:#181818;stroke-width:0.5;"/><path d="M870,75.71 L870,85.71 L880,85.71 L870,75.71 " fill="#FEFFDD" style="stroke:#181818;stroke-width:1.0;"/><text fill="#000000" font-family="sans-serif" font-size="13" lengthAdjust="spacing" textLength="50" x="815" y="92.7769">'n' ∈ ℕ*</text><text fill="#000000" font-family="sans-serif" font-size="13" lengthAdjust="spacing" textLength="42" x="815" y="107.9097">'*' ∈ ℕ</text></g><g id="elem_N2"><path d="M915,83.21 L915,108.3428 L1086,108.3428 L1086,93.21 L1076,83.21 L915,83.21 " fill="#FEFFDD" style="stroke:#181818;stroke-width:0.5;"/><path d="M1076,83.21 L1076,93.21 L1086,93.21 L1076,83.21 " fill="#FEFFDD" style="stroke:#181818;stroke-width:1.0;"/><text fill="#000000" font-family="sans-serif" font-size="13" lengthAdjust="spacing" textLength="150" x="921" y="100.2769">attributs non facultatifs</text></g><g id="elem_N3"><path d="M772,232.71 L772,257.8428 L913,257.8428 L913,242.71 L903,232.71 L772,232.71 " fill="#FEFFDD" style="stroke:#181818;stroke-width:0.5;"/><path d="M903,232.71 L903,242.71 L913,242.71 L903,232.71 " fill="#FEFFDD" style="stroke:#181818;stroke-width:1.0;"/><text fill="#000000" font-family="sans-serif" font-size="13" lengthAdjust="spacing" textLength="120" x="778" y="249.7769">héritages exclusifs</text></g><!--MD5=[d22815ff63be9cac9a63f8d1ea27d033]
class Article--><g id="elem_Article"><rect fill="#F1F1F1" height="113.1875" id="Article" rx="2.5" ry="2.5" style="stroke:#181818;stroke-width:0.5;" width="177" x="292" y="370.71"/><ellipse cx="352.25" cy="386.71" fill="#ADD1B2" rx="11" ry="11" style="stroke:#181818;stroke-width:1.0;"/><path d="M354.5938,382.3819 C353.6563,381.9444 353.0625,381.8038 352.1875,381.8038 C349.5625,381.8038 347.5625,383.8819 347.5625,386.6006 L347.5625,387.7256 C347.5625,390.3038 349.6719,392.1944 352.5625,392.1944 C353.7813,392.1944 354.9375,391.8975 355.6875,391.3506 C356.2656,390.9444 356.5938,390.4913 356.5938,390.1006 C356.5938,389.6475 356.2031,389.2569 355.7344,389.2569 C355.5156,389.2569 355.3125,389.335 355.125,389.5225 C354.6719,390.0069 354.6719,390.0069 354.4844,390.1006 C354.0625,390.3663 353.375,390.4913 352.6094,390.4913 C350.5625,390.4913 349.2656,389.3975 349.2656,387.6944 L349.2656,386.6006 C349.2656,384.8194 350.5156,383.5069 352.25,383.5069 C352.8281,383.5069 353.4375,383.6631 353.9063,383.9131 C354.3906,384.1944 354.5625,384.4131 354.6563,384.8194 C354.7188,385.2256 354.75,385.3506 354.8906,385.4756 C355.0313,385.6163 355.2656,385.7256 355.4844,385.7256 C355.75,385.7256 356.0156,385.585 356.1875,385.3663 C356.2969,385.21 356.3281,385.0225 356.3281,384.6006 L356.3281,383.1788 C356.3281,382.7413 356.3125,382.6163 356.2188,382.46 C356.0625,382.1944 355.7813,382.0538 355.4844,382.0538 C355.1875,382.0538 354.9844,382.1475 354.7656,382.46 L354.5938,382.3819 Z " fill="#000000"/><text fill="#000000" font-family="sans-serif" font-size="14" lengthAdjust="spacing" textLength="48" x="372.75" y="391.5567">Article</text><line style="stroke:#181818;stroke-width:0.5;" x1="293" x2="468" y1="402.71" y2="402.71"/><text fill="#000000" font-family="sans-serif" font-size="14" lengthAdjust="spacing" textLength="52" x="298" y="419.7051">int prix</text><text fill="#000000" font-family="sans-serif" font-size="14" lengthAdjust="spacing" textLength="85" x="298" y="436.002">bool gratuit</text><text fill="#000000" font-family="sans-serif" font-size="14" lengthAdjust="spacing" textLength="64" x="298" y="452.2989">int stock</text><text fill="#000000" font-family="sans-serif" font-size="14" lengthAdjust="spacing" textLength="165" x="298" y="468.5957">string conditionsVente</text><line style="stroke:#181818;stroke-width:0.5;" x1="293" x2="468" y1="475.8975" y2="475.8975"/></g><!--MD5=[af358a925ab72893600c8103e45e46a7]
class Vente--><g id="elem_Vente"><rect fill="#F1F1F1" height="64.2969" id="Vente" rx="2.5" ry="2.5" style="stroke:#181818;stroke-width:0.5;" width="122" x="319.5" y="560.71"/><ellipse cx="355.2" cy="576.71" fill="#ADD1B2" rx="11" ry="11" style="stroke:#181818;stroke-width:1.0;"/><path d="M357.5438,572.3819 C356.6063,571.9444 356.0125,571.8038 355.1375,571.8038 C352.5125,571.8038 350.5125,573.8819 350.5125,576.6006 L350.5125,577.7256 C350.5125,580.3038 352.6219,582.1944 355.5125,582.1944 C356.7313,582.1944 357.8875,581.8975 358.6375,581.3506 C359.2156,580.9444 359.5438,580.4913 359.5438,580.1006 C359.5438,579.6475 359.1531,579.2569 358.6844,579.2569 C358.4656,579.2569 358.2625,579.335 358.075,579.5225 C357.6219,580.0069 357.6219,580.0069 357.4344,580.1006 C357.0125,580.3663 356.325,580.4913 355.5594,580.4913 C353.5125,580.4913 352.2156,579.3975 352.2156,577.6944 L352.2156,576.6006 C352.2156,574.8194 353.4656,573.5069 355.2,573.5069 C355.7781,573.5069 356.3875,573.6631 356.8563,573.9131 C357.3406,574.1944 357.5125,574.4131 357.6063,574.8194 C357.6688,575.2256 357.7,575.3506 357.8406,575.4756 C357.9813,575.6163 358.2156,575.7256 358.4344,575.7256 C358.7,575.7256 358.9656,575.585 359.1375,575.3663 C359.2469,575.21 359.2781,575.0225 359.2781,574.6006 L359.2781,573.1788 C359.2781,572.7413 359.2625,572.6163 359.1688,572.46 C359.0125,572.1944 358.7313,572.0538 358.4344,572.0538 C358.1375,572.0538 357.9344,572.1475 357.7156,572.46 L357.5438,572.3819 Z " fill="#000000"/><text fill="#000000" font-family="sans-serif" font-size="14" lengthAdjust="spacing" textLength="44" x="373.8" y="581.5567">Vente</text><line style="stroke:#181818;stroke-width:0.5;" x1="320.5" x2="440.5" y1="592.71" y2="592.71"/><text fill="#000000" font-family="sans-serif" font-size="14" lengthAdjust="spacing" textLength="110" x="325.5" y="609.7051">ÉtatVente état</text><line style="stroke:#181818;stroke-width:0.5;" x1="320.5" x2="440.5" y1="617.0069" y2="617.0069"/></g><!--MD5=[2edbcacfe33c4b8b7921bdbdbee061c1]
class Asso--><g id="elem_Asso"><rect fill="#F1F1F1" height="48" id="Asso" rx="2.5" ry="2.5" style="stroke:#181818;stroke-width:0.5;" width="65" x="7" y="221.21"/><ellipse cx="22" cy="237.21" fill="#ADD1B2" rx="11" ry="11" style="stroke:#181818;stroke-width:1.0;"/><path d="M24.3438,232.8819 C23.4063,232.4444 22.8125,232.3038 21.9375,232.3038 C19.3125,232.3038 17.3125,234.3819 17.3125,237.1006 L17.3125,238.2256 C17.3125,240.8038 19.4219,242.6944 22.3125,242.6944 C23.5313,242.6944 24.6875,242.3975 25.4375,241.8506 C26.0156,241.4444 26.3438,240.9913 26.3438,240.6006 C26.3438,240.1475 25.9531,239.7569 25.4844,239.7569 C25.2656,239.7569 25.0625,239.835 24.875,240.0225 C24.4219,240.5069 24.4219,240.5069 24.2344,240.6006 C23.8125,240.8663 23.125,240.9913 22.3594,240.9913 C20.3125,240.9913 19.0156,239.8975 19.0156,238.1944 L19.0156,237.1006 C19.0156,235.3194 20.2656,234.0069 22,234.0069 C22.5781,234.0069 23.1875,234.1631 23.6563,234.4131 C24.1406,234.6944 24.3125,234.9131 24.4063,235.3194 C24.4688,235.7256 24.5,235.8506 24.6406,235.9756 C24.7813,236.1163 25.0156,236.2256 25.2344,236.2256 C25.5,236.2256 25.7656,236.085 25.9375,235.8663 C26.0469,235.71 26.0781,235.5225 26.0781,235.1006 L26.0781,233.6788 C26.0781,233.2413 26.0625,233.1163 25.9688,232.96 C25.8125,232.6944 25.5313,232.5538 25.2344,232.5538 C24.9375,232.5538 24.7344,232.6475 24.5156,232.96 L24.3438,232.8819 Z " fill="#000000"/><text fill="#000000" font-family="sans-serif" font-size="14" lengthAdjust="spacing" textLength="33" x="36" y="242.0567">Asso</text><line style="stroke:#181818;stroke-width:0.5;" x1="8" x2="71" y1="253.21" y2="253.21"/><line style="stroke:#181818;stroke-width:0.5;" x1="8" x2="71" y1="261.21" y2="261.21"/></g><!--MD5=[804271b81fc64b7630cb581c84c60fa1]
class Pers_portail--><g id="elem_Pers_portail"><rect fill="#F1F1F1" height="48" id="Pers_portail" rx="2.5" ry="2.5" style="stroke:#181818;stroke-width:0.5;" width="118" x="138.5" y="403.21"/><ellipse cx="153.5" cy="419.21" fill="#ADD1B2" rx="11" ry="11" style="stroke:#181818;stroke-width:1.0;"/><path d="M155.8438,414.8819 C154.9063,414.4444 154.3125,414.3038 153.4375,414.3038 C150.8125,414.3038 148.8125,416.3819 148.8125,419.1006 L148.8125,420.2256 C148.8125,422.8038 150.9219,424.6944 153.8125,424.6944 C155.0313,424.6944 156.1875,424.3975 156.9375,423.8506 C157.5156,423.4444 157.8438,422.9913 157.8438,422.6006 C157.8438,422.1475 157.4531,421.7569 156.9844,421.7569 C156.7656,421.7569 156.5625,421.835 156.375,422.0225 C155.9219,422.5069 155.9219,422.5069 155.7344,422.6006 C155.3125,422.8663 154.625,422.9913 153.8594,422.9913 C151.8125,422.9913 150.5156,421.8975 150.5156,420.1944 L150.5156,419.1006 C150.5156,417.3194 151.7656,416.0069 153.5,416.0069 C154.0781,416.0069 154.6875,416.1631 155.1563,416.4131 C155.6406,416.6944 155.8125,416.9131 155.9063,417.3194 C155.9688,417.7256 156,417.8506 156.1406,417.9756 C156.2813,418.1163 156.5156,418.2256 156.7344,418.2256 C157,418.2256 157.2656,418.085 157.4375,417.8663 C157.5469,417.71 157.5781,417.5225 157.5781,417.1006 L157.5781,415.6788 C157.5781,415.2413 157.5625,415.1163 157.4688,414.96 C157.3125,414.6944 157.0313,414.5538 156.7344,414.5538 C156.4375,414.5538 156.2344,414.6475 156.0156,414.96 L155.8438,414.8819 Z " fill="#000000"/><text fill="#000000" font-family="sans-serif" font-size="14" lengthAdjust="spacing" textLength="86" x="167.5" y="424.0567">Pers_portail</text><line style="stroke:#181818;stroke-width:0.5;" x1="139.5" x2="255.5" y1="435.21" y2="435.21"/><line style="stroke:#181818;stroke-width:0.5;" x1="139.5" x2="255.5" y1="443.21" y2="443.21"/></g><!--MD5=[4337fef93a4164fb5e17f09a2ace23d6]
class Personne--><g id="elem_Personne"><rect codeLine="13" fill="#F1F1F1" height="64.2969" id="Personne" rx="2.5" ry="2.5" style="stroke:#181818;stroke-width:0.5;" width="142" x="504.5" y="395.21"/><ellipse cx="538.85" cy="411.21" fill="#ADD1B2" rx="11" ry="11" style="stroke:#181818;stroke-width:1.0;"/><path d="M541.1938,406.8819 C540.2563,406.4444 539.6625,406.3038 538.7875,406.3038 C536.1625,406.3038 534.1625,408.3819 534.1625,411.1006 L534.1625,412.2256 C534.1625,414.8038 536.2719,416.6944 539.1625,416.6944 C540.3813,416.6944 541.5375,416.3975 542.2875,415.8506 C542.8656,415.4444 543.1938,414.9913 543.1938,414.6006 C543.1938,414.1475 542.8031,413.7569 542.3344,413.7569 C542.1156,413.7569 541.9125,413.835 541.725,414.0225 C541.2719,414.5069 541.2719,414.5069 541.0844,414.6006 C540.6625,414.8663 539.975,414.9913 539.2094,414.9913 C537.1625,414.9913 535.8656,413.8975 535.8656,412.1944 L535.8656,411.1006 C535.8656,409.3194 537.1156,408.0069 538.85,408.0069 C539.4281,408.0069 540.0375,408.1631 540.5063,408.4131 C540.9906,408.6944 541.1625,408.9131 541.2563,409.3194 C541.3188,409.7256 541.35,409.8506 541.4906,409.9756 C541.6313,410.1163 541.8656,410.2256 542.0844,410.2256 C542.35,410.2256 542.6156,410.085 542.7875,409.8663 C542.8969,409.71 542.9281,409.5225 542.9281,409.1006 L542.9281,407.6788 C542.9281,407.2413 542.9125,407.1163 542.8188,406.96 C542.6625,406.6944 542.3813,406.5538 542.0844,406.5538 C541.7875,406.5538 541.5844,406.6475 541.3656,406.96 L541.1938,406.8819 Z " fill="#000000"/><text fill="#000000" font-family="sans-serif" font-size="14" lengthAdjust="spacing" textLength="67" x="557.15" y="416.0567">Personne</text><line style="stroke:#181818;stroke-width:0.5;" x1="505.5" x2="645.5" y1="427.21" y2="427.21"/><text fill="#000000" font-family="sans-serif" font-size="14" lengthAdjust="spacing" textLength="130" x="510.5" y="444.2051">{opt} email email</text><line style="stroke:#181818;stroke-width:0.5;" x1="505.5" x2="645.5" y1="451.5069" y2="451.5069"/></g><!--MD5=[c823c73fbc5da100f89670cf597cbced]
class Réservation--><g id="elem_Réservation"><rect fill="#F1F1F1" height="48" id="Réservation" rx="2.5" ry="2.5" style="stroke:#181818;stroke-width:0.5;" width="118" x="618.5" y="221.21"/><ellipse cx="633.5" cy="237.21" fill="#ADD1B2" rx="11" ry="11" style="stroke:#181818;stroke-width:1.0;"/><path d="M635.8438,232.8819 C634.9063,232.4444 634.3125,232.3038 633.4375,232.3038 C630.8125,232.3038 628.8125,234.3819 628.8125,237.1006 L628.8125,238.2256 C628.8125,240.8038 630.9219,242.6944 633.8125,242.6944 C635.0313,242.6944 636.1875,242.3975 636.9375,241.8506 C637.5156,241.4444 637.8438,240.9913 637.8438,240.6006 C637.8438,240.1475 637.4531,239.7569 636.9844,239.7569 C636.7656,239.7569 636.5625,239.835 636.375,240.0225 C635.9219,240.5069 635.9219,240.5069 635.7344,240.6006 C635.3125,240.8663 634.625,240.9913 633.8594,240.9913 C631.8125,240.9913 630.5156,239.8975 630.5156,238.1944 L630.5156,237.1006 C630.5156,235.3194 631.7656,234.0069 633.5,234.0069 C634.0781,234.0069 634.6875,234.1631 635.1563,234.4131 C635.6406,234.6944 635.8125,234.9131 635.9063,235.3194 C635.9688,235.7256 636,235.8506 636.1406,235.9756 C636.2813,236.1163 636.5156,236.2256 636.7344,236.2256 C637,236.2256 637.2656,236.085 637.4375,235.8663 C637.5469,235.71 637.5781,235.5225 637.5781,235.1006 L637.5781,233.6788 C637.5781,233.2413 637.5625,233.1163 637.4688,232.96 C637.3125,232.6944 637.0313,232.5538 636.7344,232.5538 C636.4375,232.5538 636.2344,232.6475 636.0156,232.96 L635.8438,232.8819 Z " fill="#000000"/><text fill="#000000" font-family="sans-serif" font-size="14" lengthAdjust="spacing" textLength="86" x="647.5" y="242.0567">Réservation</text><line style="stroke:#181818;stroke-width:0.5;" x1="619.5" x2="735.5" y1="253.21" y2="253.21"/><line style="stroke:#181818;stroke-width:0.5;" x1="619.5" x2="735.5" y1="261.21" y2="261.21"/></g><!--MD5=[59383b4b2ed63af293dd7a4470ad3968]
class ÉtatVente--><g id="elem_ÉtatVente"><rect codeLine="23" fill="#F1F1F1" height="96.8906" id="ÉtatVente" rx="2.5" ry="2.5" style="stroke:#181818;stroke-width:0.5;" width="134" x="948.5" y="196.71"/><ellipse cx="975.65" cy="212.71" fill="#EB937F" rx="11" ry="11" style="stroke:#181818;stroke-width:1.0;"/><path d="M974.4469,213.585 L975.9,213.585 L975.9,213.6944 C975.9,214.1006 975.9313,214.2569 976.0094,214.4131 C976.1656,214.6631 976.4469,214.8194 976.7438,214.8194 C976.9938,214.8194 977.2594,214.6788 977.4156,214.46 C977.5406,214.3038 977.5719,214.1475 977.5719,213.6944 L977.5719,211.7725 C977.5719,211.6163 977.5719,211.5694 977.5563,211.4131 C977.4938,210.9444 977.1813,210.6319 976.7281,210.6319 C976.4781,210.6319 976.2125,210.7725 976.0406,210.9913 C975.9313,211.1631 975.9,211.3194 975.9,211.7725 L975.9,211.8975 L974.4469,211.8975 L974.4469,209.4913 L978.4313,209.4913 L978.4313,210.3506 C978.4313,210.7569 978.4625,210.9288 978.5406,211.085 C978.7125,211.335 978.9938,211.4913 979.275,211.4913 C979.5406,211.4913 979.8063,211.3506 979.9781,211.1319 C980.0875,210.96 980.1188,210.8194 980.1188,210.3506 L980.1188,207.8038 L972.4938,207.8038 C972.0563,207.8038 971.9313,207.8194 971.775,207.9131 C971.525,208.0694 971.3688,208.3663 971.3688,208.6475 C971.3688,208.9288 971.5094,209.1788 971.7281,209.3506 C971.8844,209.46 972.0719,209.4913 972.4938,209.4913 L972.7438,209.4913 L972.7438,216.0069 L972.4938,216.0069 C972.0875,216.0069 971.9313,216.0225 971.775,216.1319 C971.525,216.3038 971.3688,216.5694 971.3688,216.8663 C971.3688,217.1319 971.5094,217.3819 971.7281,217.5381 C971.8688,217.6631 972.1031,217.71 972.4938,217.71 L980.4938,217.71 L980.4938,215.1319 C980.4938,214.6944 980.4625,214.5538 980.3844,214.3975 C980.2125,214.1475 979.9313,213.9913 979.65,213.9913 C979.3844,213.9913 979.1188,214.1006 978.9469,214.3506 C978.8375,214.5069 978.8063,214.6475 978.8063,215.1319 L978.8063,216.0069 L974.4469,216.0069 L974.4469,213.585 Z " fill="#000000"/><text fill="#000000" font-family="sans-serif" font-size="14" lengthAdjust="spacing" textLength="75" x="992.35" y="217.5567">ÉtatVente</text><line style="stroke:#181818;stroke-width:0.5;" x1="949.5" x2="1081.5" y1="228.71" y2="228.71"/><text fill="#000000" font-family="sans-serif" font-size="14" lengthAdjust="spacing" textLength="99" x="954.5" y="245.7051">DANS_PANIER</text><text fill="#000000" font-family="sans-serif" font-size="14" lengthAdjust="spacing" textLength="122" x="954.5" y="262.002">CGV_ACCEPTÉES</text><text fill="#000000" font-family="sans-serif" font-size="14" lengthAdjust="spacing" textLength="37" x="954.5" y="278.2989">PAYÉ</text><line style="stroke:#181818;stroke-width:0.5;" x1="949.5" x2="1081.5" y1="285.6006" y2="285.6006"/></g><!--MD5=[3ed4bcbed26c20ce25bb3b610eb690ef]
link Article to Vente--><g id="link_Article_Vente"><path codeLine="7" d="M380.5,484.02 C380.5,509.553 380.5,538.8514 380.5,560.4364 " fill="none" id="Article-Vente" style="stroke:#181818;stroke-width:1.0;"/><text fill="#000000" font-family="sans-serif" font-size="13" lengthAdjust="spacing" textLength="8" x="372.0125" y="503.9213">1</text><text fill="#000000" font-family="sans-serif" font-size="13" lengthAdjust="spacing" textLength="7" x="372.8109" y="549.6567">*</text></g><!--MD5=[d9e17217fe18eefc274e03cb5c8bfbfd]
link Asso to Article--><g id="link_Asso_Article"><path codeLine="9" d="M59.9177,269.407 C68.1833,277.837 78.2012,286.945 88.5,293.71 C163.281,342.83 193.453,332.81 274.5,370.71 C280.145,373.35 285.923,376.133 291.724,378.99 " fill="none" id="Asso-Article" style="stroke:#181818;stroke-width:1.0;"/><polygon fill="#000000" points="201.0203,334.4133,194.099,327.8906,191.5869,333.2046,201.0203,334.4133" style="stroke:#000000;stroke-width:1.0;"/><text fill="#000000" font-family="sans-serif" font-size="13" lengthAdjust="spacing" textLength="32" x="205.5" y="336.7769">vend</text><text fill="#000000" font-family="sans-serif" font-size="13" lengthAdjust="spacing" textLength="8" x="55.9195" y="289.2162">1</text><text fill="#000000" font-family="sans-serif" font-size="13" lengthAdjust="spacing" textLength="7" x="277.0824" y="371.4403">*</text></g><!--MD5=[2b1a0a0b0c46cc1555fc1307021ff80f]
link Pers_portail to Personne--><g id="link_Pers_portail_Personne"><path codeLine="11" d="M212.901,403.18 C229.309,380.036 257.631,346.499 292,332.21 C364.639,302.01 395.493,304.189 469,332.21 C494.812,342.05 518.342,361.338 536.68,379.978 " fill="none" id="Pers_portail-to-Personne" style="stroke:#181818;stroke-width:1.0;"/><polygon fill="none" points="542.067,375.492,550.509,394.927,531.79,384.999,542.067,375.492" style="stroke:#181818;stroke-width:1.0;"/></g><!--MD5=[76be7e653af5194c4a8dbe14aa476d72]
link Réservation to Article--><g id="link_Réservation_Article"><path codeLine="17" d="M640.862,269.3 C628.401,277.102 614.372,285.83 601.5,293.71 C558.1,320.279 509.636,349.397 469.176,373.553 " fill="none" id="Réservation-Article" style="stroke:#181818;stroke-width:1.0;"/><text fill="#000000" font-family="sans-serif" font-size="13" lengthAdjust="spacing" textLength="34" x="636.0752" y="289.0831">stock</text><text fill="#000000" font-family="sans-serif" font-size="13" lengthAdjust="spacing" textLength="8" x="477.1403" y="365.3619">1</text></g><!--MD5=[1e1a98890fe4c006e4aab5387968ca20]
link Réservation to Personne--><g id="link_Réservation_Personne"><path codeLine="18" d="M639.037,269.421 C620.293,282.85 599.299,301.493 587.5,323.71 C575.903,345.546 573.322,373.626 573.406,394.872 " fill="none" id="Réservation-Personne" style="stroke:#181818;stroke-width:1.0;"/><polygon fill="#000000" points="594.8178,327.8461,588.0208,334.4983,593.229,337.223,594.8178,327.8461" style="stroke:#000000;stroke-width:1.0;"/><text fill="#000000" font-family="sans-serif" font-size="13" lengthAdjust="spacing" textLength="74" x="601.5" y="336.7769">bénéficiaire</text><text fill="#000000" font-family="sans-serif" font-size="13" lengthAdjust="spacing" textLength="7" x="621.8085" y="289.2336">*</text><text fill="#000000" font-family="sans-serif" font-size="13" lengthAdjust="spacing" textLength="8" x="573.7812" y="384.0796">1</text></g><!--MD5=[fdb8692048267e82e7f2698ad737536d]
link Réservation to Vente--><g id="link_Réservation_Vente"><path codeLine="19" d="M684.041,269.398 C695.553,315.579 713.833,420.068 664.5,483.71 C610.933,552.8134 507.677,577.7075 441.531,586.6714 " fill="none" id="Réservation-Vente" style="stroke:#181818;stroke-width:1.0;"/><text fill="#000000" font-family="sans-serif" font-size="13" lengthAdjust="spacing" textLength="7" x="677.7822" y="289.205">*</text><text fill="#000000" font-family="sans-serif" font-size="13" lengthAdjust="spacing" textLength="8" x="449.4567" y="582.0783">1</text></g><!--MD5=[f33610069949d7cc885488edd6a077e1]
link Pers_portail to Vente--><g id="link_Pers_portail_Vente"><path codeLine="29" d="M223.331,451.289 C255.351,479.897 310.049,528.7657 345.732,560.6466 " fill="none" id="Pers_portail-Vente" style="stroke:#181818;stroke-width:1.0;"/><polygon fill="#000000" points="319.2286,525.6077,314.4416,517.3897,310.5254,521.773,319.2286,525.6077" style="stroke:#000000;stroke-width:1.0;"/><text fill="#000000" font-family="sans-serif" font-size="13" lengthAdjust="spacing" textLength="34" x="324.5" y="526.7769">client</text><text fill="#000000" font-family="sans-serif" font-size="13" lengthAdjust="spacing" textLength="8" x="220.9252" y="471.465">1</text><text fill="#000000" font-family="sans-serif" font-size="13" lengthAdjust="spacing" textLength="7" x="330.8392" y="549.5366">*</text></g><!--MD5=[1abe37d42249e94372fa73ed190e04db]
link Operateur to PermissionArticle--><g id="link_Operateur_PermissionArticle"><path codeLine="40" d="M485.167,119.771 C470.621,128.079 455.131,138.265 442.5,149.71 C425.203,165.382 409.534,186.022 397.514,204.014 " fill="none" id="Operateur-to-PermissionArticle" style="stroke:#181818;stroke-width:1.0;"/><polygon fill="none" points="403.24,208.054,386.592,221.163,391.432,200.533,403.24,208.054" style="stroke:#181818;stroke-width:1.0;"/></g><!--MD5=[1abe37d42249e94372fa73ed190e04db]
link Operateur to PermissionArticle--><g id="link_Operateur_PermissionArticle"><path codeLine="41" d="M507.656,119.757 C477.873,147.386 428.253,193.417 398.431,221.082 " fill="none" id="Operateur-PermissionArticle" style="stroke:#181818;stroke-width:1.0;"/><polygon fill="#000000" points="480.1656,154.8759,471.5357,158.8729,475.5332,163.182,480.1656,154.8759" style="stroke:#000000;stroke-width:1.0;"/><text fill="#000000" font-family="sans-serif" font-size="13" lengthAdjust="spacing" textLength="61" x="485.5" y="162.7769">opérande</text><text fill="#000000" font-family="sans-serif" font-size="13" lengthAdjust="spacing" textLength="24" x="474.2147" y="139.9248">0..1</text><text fill="#000000" font-family="sans-serif" font-size="13" lengthAdjust="spacing" textLength="8" x="395.7946" y="210.0612">n</text></g><!--MD5=[711b2067cb0280ecc0c826005d8362fe]
link ET to Operateur--><g id="link_ET_Operateur"><path codeLine="42" d="M444.66,95.71 C449.582,95.71 454.504,95.71 459.425,95.71 " fill="none" id="ET-to-Operateur" style="stroke:#181818;stroke-width:1.0;"/><polygon fill="none" points="459.659,88.71,479.659,95.71,459.659,102.71,459.659,88.71" style="stroke:#181818;stroke-width:1.0;"/></g><!--MD5=[15a89096c14ee26b19da680a973d9e52]
link OU to Operateur--><g id="link_OU_Operateur"><path codeLine="43" d="M342.769,71.559 C352.263,50.961 369.298,23.218 395,13.71 C415.842,6 424.158,6 445,13.71 C467.491,22.03 487.458,39.464 502.618,56.126 " fill="none" id="OU-to-Operateur" style="stroke:#181818;stroke-width:1.0;"/><polygon fill="none" points="508.072,51.737,515.605,71.542,497.366,60.757,508.072,51.737" style="stroke:#181818;stroke-width:1.0;"/></g><!--MD5=[4839561f3ffd31254773e66fb66b36aa]
link Whitelist to PermissionArticle--><g id="link_Whitelist_PermissionArticle"><path codeLine="44" d="M485.999,245.21 C481.101,245.21 476.204,245.21 471.306,245.21 " fill="none" id="Whitelist-to-PermissionArticle" style="stroke:#181818;stroke-width:1.0;"/><polygon fill="none" points="471.17,252.21,451.17,245.21,471.17,238.21,471.17,252.21" style="stroke:#181818;stroke-width:1.0;"/></g><!--MD5=[d76decb13140898bd75ec20ec0ea9ce1]
link Whitelist to Personne--><g id="link_Whitelist_Personne"><path codeLine="45" d="M539.223,269.557 C543.149,288.711 548.97,316.515 554.5,340.71 C558.621,358.74 563.538,378.827 567.578,394.998 " fill="none" id="Whitelist-Personne" style="stroke:#181818;stroke-width:1.0;"/><text fill="#000000" font-family="sans-serif" font-size="13" lengthAdjust="spacing" textLength="7" x="532.5211" y="289.4028">*</text><text fill="#000000" font-family="sans-serif" font-size="13" lengthAdjust="spacing" textLength="7" x="558.3293" y="384.2304">*</text></g><!--MD5=[ccb5e6d959b82f45c7923f76f3938fd6]
link AppartenanceAsso to PermissionArticle--><g id="link_AppartenanceAsso_PermissionArticle"><path codeLine="46" d="M217.406,119.757 C247.187,143.501 294.012,180.835 328.615,208.423 " fill="none" id="AppartenanceAsso-to-PermissionArticle" style="stroke:#181818;stroke-width:1.0;"/><polygon fill="none" points="333.218,203.141,344.492,221.082,324.49,214.087,333.218,203.141" style="stroke:#181818;stroke-width:1.0;"/></g><!--MD5=[6a16ac192a439a964cce9d3c66a3336e]
link AppartenanceAsso to Asso--><g id="link_AppartenanceAsso_Asso"><path codeLine="47" d="M165.219,119.757 C137.39,147.305 91.0822,193.147 63.1095,220.838 " fill="none" id="AppartenanceAsso-Asso" style="stroke:#181818;stroke-width:1.0;"/><text fill="#000000" font-family="sans-serif" font-size="13" lengthAdjust="spacing" textLength="7" x="151.3564" y="139.9248">*</text><text fill="#000000" font-family="sans-serif" font-size="13" lengthAdjust="spacing" textLength="8" x="59.8893" y="210.1523">n</text></g><!--MD5=[53be59b2365111dee98282e33f06d352]
link Article to PermissionArticle--><g id="link_Article_PermissionArticle"><path codeLine="48" d="M378.339,370.639 C377.015,336.599 375.39,294.82 374.401,269.373 " fill="none" id="Article-PermissionArticle" style="stroke:#181818;stroke-width:1.0;"/><polygon fill="#000000" points="381.3057,327.2802,378.7205,336.4326,384.5939,336.2042,381.3057,327.2802" style="stroke:#000000;stroke-width:1.0;"/><text fill="#000000" font-family="sans-serif" font-size="13" lengthAdjust="spacing" textLength="50" x="390.5" y="336.7769">protégé</text><text fill="#000000" font-family="sans-serif" font-size="13" lengthAdjust="spacing" textLength="8" x="369.5496" y="359.4933">1</text><text fill="#000000" font-family="sans-serif" font-size="13" lengthAdjust="spacing" textLength="24" x="347.6956" y="289.1739">0..1</text></g><!--MD5=[fabf2c11c7d2abecd90b10b7c081f26a]
@startuml
skinparam groupInheritance 2

note " 'n' ∈ ℕ*\n '*' ∈ ℕ" as N1
note "attributs non facultatifs" as N2
note "héritages exclusifs" as N3

Article "1" - - "*" Vente

Asso "1" - - "*" Article : vend >

Pers_portail -|> Personne

class Personne {
	{opt} email email
}

Réservation "stock" - - "1" Article
Réservation "*" - - "1" Personne : bénéficiaire <
Réservation "*" - - "1" Vente

Vente : ÉtatVente état

enum ÉtatVente {
	DANS_PANIER
	CGV_ACCEPTÉES
	PAYÉ
}

Pers_portail "1" - - "*" Vente : client >

Article : int prix
Article : bool gratuit
Article : int stock
Article : string conditionsVente

package "Description des permissions d'accès à la vente des articles" #DDDDDD {

abstract PermissionArticle
abstract Operateur
Operateur - -|> PermissionArticle
Operateur "0..1" - - "n" PermissionArticle : opérande <
ET -|> Operateur
OU -|> Operateur
Whitelist -|> PermissionArticle
Whitelist "*" - - "*" Personne
AppartenanceAsso - -|> PermissionArticle
AppartenanceAsso "*" - - "n" Asso
Article "1" - - "0..1" PermissionArticle : protégé >

}
@enduml

PlantUML version 1.2022.7beta2(Unknown compile time)
(GPL source distribution)
Java Runtime: Java(TM) SE Runtime Environment
JVM: Java HotSpot(TM) 64-Bit Server VM
Default Encoding: UTF-8
Language: en
Country: US
--></g></svg>